<?xml version="1.0" encoding="UTF-8"?>
<svg xmlns="http://www.w3.org/2000/svg" width="315" height="81">
   <defs>
      <style type="text/css">
    @namespace "http://www.w3.org/2000/svg";
    .line                 {fill: none; stroke: #003322; stroke-width: 1;}
    .bold-line            {stroke: #00140E; shape-rendering: crispEdges; stroke-width: 2;}
    .thin-line            {stroke: #001F14; shape-rendering: crispEdges}
    .filled               {fill: #003322; stroke: none;}
    text.terminal         {font-family: Verdana, Sans-serif;
                            font-size: 12px;
                            fill: #00140E;
                            font-weight: bold;
                          }
    text.nonterminal      {font-family: Verdana, Sans-serif;
                            font-size: 12px;
                            fill: #001A11;
                            font-weight: normal;
                          }
    text.regexp           {font-family: Verdana, Sans-serif;
                            font-size: 12px;
                            fill: #001F14;
                            font-weight: normal;
                          }
    rect, circle, polygon {fill: #003322; stroke: #003322;}
    rect.terminal         {fill: #4DFFC3; stroke: #003322; stroke-width: 1;}
    rect.nonterminal      {fill: #9EFFDF; stroke: #003322; stroke-width: 1;}
    rect.text             {fill: none; stroke: none;}
    polygon.regexp        {fill: #C7FFEC; stroke: #003322; stroke-width: 1;}
  </style>
   </defs>
   <polygon points="9 17 1 13 1 21"/>
   <polygon points="17 17 9 13 9 21"/>
   <rect x="31" y="3" width="24" height="32" rx="10"/>
   <rect x="29"
         y="1"
         width="24"
         height="32"
         class="terminal"
         rx="10"/>
   <text class="terminal" x="39" y="21">:</text>
   <a xmlns:xlink="http://www.w3.org/1999/xlink"
      xlink:href="#ATOM_UNQUOTED_PART"
      xlink:title="ATOM_UNQUOTED_PART">
      <rect x="95" y="3" width="172" height="32"/>
      <rect x="93" y="1" width="172" height="32" class="nonterminal"/>
      <text class="nonterminal" x="103" y="21">ATOM_UNQUOTED_PART</text>
   </a>
   <a xmlns:xlink="http://www.w3.org/1999/xlink"
      xlink:href="#ATOM_QUOTED_PART"
      xlink:title="ATOM_QUOTED_PART">
      <rect x="95" y="47" width="154" height="32"/>
      <rect x="93" y="45" width="154" height="32" class="nonterminal"/>
      <text class="nonterminal" x="103" y="65">ATOM_QUOTED_PART</text>
   </a>
   <path class="line"
         d="m17 17 h2 m0 0 h10 m24 0 h10 m20 0 h10 m172 0 h10 m-212 0 h20 m192 0 h20 m-232 0 q10 0 10 10 m212 0 q0 -10 10 -10 m-222 10 v24 m212 0 v-24 m-212 24 q0 10 10 10 m192 0 q10 0 10 -10 m-202 10 h10 m154 0 h10 m0 0 h18 m23 -44 h-3"/>
   <polygon points="305 17 313 13 313 21"/>
   <polygon points="305 17 297 13 297 21"/>
</svg>
