<?xml version="1.0" encoding="UTF-8"?>
<svg xmlns="http://www.w3.org/2000/svg" width="543" height="69">
   <defs>
      <style type="text/css">
    @namespace "http://www.w3.org/2000/svg";
    .line                 {fill: none; stroke: #003322; stroke-width: 1;}
    .bold-line            {stroke: #00140E; shape-rendering: crispEdges; stroke-width: 2;}
    .thin-line            {stroke: #001F14; shape-rendering: crispEdges}
    .filled               {fill: #003322; stroke: none;}
    text.terminal         {font-family: Verdana, Sans-serif;
                            font-size: 12px;
                            fill: #00140E;
                            font-weight: bold;
                          }
    text.nonterminal      {font-family: Verdana, Sans-serif;
                            font-size: 12px;
                            fill: #001A11;
                            font-weight: normal;
                          }
    text.regexp           {font-family: Verdana, Sans-serif;
                            font-size: 12px;
                            fill: #001F14;
                            font-weight: normal;
                          }
    rect, circle, polygon {fill: #003322; stroke: #003322;}
    rect.terminal         {fill: #4DFFC3; stroke: #003322; stroke-width: 1;}
    rect.nonterminal      {fill: #9EFFDF; stroke: #003322; stroke-width: 1;}
    rect.text             {fill: none; stroke: none;}
    polygon.regexp        {fill: #C7FFEC; stroke: #003322; stroke-width: 1;}
  </style>
   </defs>
   <polygon points="9 17 1 13 1 21"/>
   <polygon points="17 17 9 13 9 21"/>
   <rect x="31" y="3" width="104" height="32" rx="10"/>
   <rect x="29"
         y="1"
         width="104"
         height="32"
         class="terminal"
         rx="10"/>
   <text class="terminal" x="39" y="21">billingConfig</text>
   <rect x="155" y="3" width="20" height="32" rx="10"/>
   <rect x="153"
         y="1"
         width="20"
         height="32"
         class="terminal"
         rx="10"/>
   <text class="terminal" x="163" y="21"/>
   <rect x="215" y="35" width="122" height="32" rx="10"/>
   <rect x="213"
         y="33"
         width="122"
         height="32"
         class="terminal"
         rx="10"/>
   <text class="terminal" x="223" y="53">billingCategory</text>
   <rect x="357" y="35" width="24" height="32" rx="10"/>
   <rect x="355"
         y="33"
         width="24"
         height="32"
         class="terminal"
         rx="10"/>
   <text class="terminal" x="365" y="53">:</text>
   <a xmlns:xlink="http://www.w3.org/1999/xlink"
      xlink:href="#ATOM"
      xlink:title="ATOM">
      <rect x="401" y="35" width="54" height="32"/>
      <rect x="399" y="33" width="54" height="32" class="nonterminal"/>
      <text class="nonterminal" x="409" y="53">ATOM</text>
   </a>
   <rect x="495" y="3" width="20" height="32" rx="10"/>
   <rect x="493"
         y="1"
         width="20"
         height="32"
         class="terminal"
         rx="10"/>
   <text class="terminal" x="503" y="21"/>
   <path class="line"
         d="m17 17 h2 m0 0 h10 m104 0 h10 m0 0 h10 m20 0 h10 m20 0 h10 m0 0 h250 m-280 0 h20 m260 0 h20 m-300 0 q10 0 10 10 m280 0 q0 -10 10 -10 m-290 10 v12 m280 0 v-12 m-280 12 q0 10 10 10 m260 0 q10 0 10 -10 m-270 10 h10 m122 0 h10 m0 0 h10 m24 0 h10 m0 0 h10 m54 0 h10 m20 -32 h10 m20 0 h10 m3 0 h-3"/>
   <polygon points="533 17 541 13 541 21"/>
   <polygon points="533 17 525 13 525 21"/>
</svg>
