<?xml version="1.0" encoding="UTF-8"?>
<svg xmlns="http://www.w3.org/2000/svg" width="499" height="81">
   <defs>
      <style type="text/css">
    @namespace "http://www.w3.org/2000/svg";
    .line                 {fill: none; stroke: #003322; stroke-width: 1;}
    .bold-line            {stroke: #00140E; shape-rendering: crispEdges; stroke-width: 2;}
    .thin-line            {stroke: #001F14; shape-rendering: crispEdges}
    .filled               {fill: #003322; stroke: none;}
    text.terminal         {font-family: Verdana, Sans-serif;
                            font-size: 12px;
                            fill: #00140E;
                            font-weight: bold;
                          }
    text.nonterminal      {font-family: Verdana, Sans-serif;
                            font-size: 12px;
                            fill: #001A11;
                            font-weight: normal;
                          }
    text.regexp           {font-family: Verdana, Sans-serif;
                            font-size: 12px;
                            fill: #001F14;
                            font-weight: normal;
                          }
    rect, circle, polygon {fill: #003322; stroke: #003322;}
    rect.terminal         {fill: #4DFFC3; stroke: #003322; stroke-width: 1;}
    rect.nonterminal      {fill: #9EFFDF; stroke: #003322; stroke-width: 1;}
    rect.text             {fill: none; stroke: none;}
    polygon.regexp        {fill: #C7FFEC; stroke: #003322; stroke-width: 1;}
  </style>
   </defs>
   <polygon points="9 17 1 13 1 21"/>
   <polygon points="17 17 9 13 9 21"/>
   <rect x="31" y="3" width="94" height="32" rx="10"/>
   <rect x="29"
         y="1"
         width="94"
         height="32"
         class="terminal"
         rx="10"/>
   <text class="terminal" x="39" y="21">suggestion</text>
   <rect x="145" y="3" width="20" height="32" rx="10"/>
   <rect x="143"
         y="1"
         width="20"
         height="32"
         class="terminal"
         rx="10"/>
   <text class="terminal" x="153" y="21"/>
   <rect x="205" y="3" width="54" height="32" rx="10"/>
   <rect x="203"
         y="1"
         width="54"
         height="32"
         class="terminal"
         rx="10"/>
   <text class="terminal" x="213" y="21">reply</text>
   <a xmlns:xlink="http://www.w3.org/1999/xlink"
      xlink:href="#suggestedReply"
      xlink:title="suggestedReply">
      <rect x="279" y="3" width="122" height="32"/>
      <rect x="277" y="1" width="122" height="32" class="nonterminal"/>
      <text class="nonterminal" x="287" y="21">suggestedReply</text>
   </a>
   <rect x="205" y="47" width="60" height="32" rx="10"/>
   <rect x="203"
         y="45"
         width="60"
         height="32"
         class="terminal"
         rx="10"/>
   <text class="terminal" x="213" y="65">action</text>
   <a xmlns:xlink="http://www.w3.org/1999/xlink"
      xlink:href="#suggestedAction"
      xlink:title="suggestedAction">
      <rect x="285" y="47" width="126" height="32"/>
      <rect x="283" y="45" width="126" height="32" class="nonterminal"/>
      <text class="nonterminal" x="293" y="65">suggestedAction</text>
   </a>
   <rect x="451" y="3" width="20" height="32" rx="10"/>
   <rect x="449"
         y="1"
         width="20"
         height="32"
         class="terminal"
         rx="10"/>
   <text class="terminal" x="459" y="21"/>
   <path class="line"
         d="m17 17 h2 m0 0 h10 m94 0 h10 m0 0 h10 m20 0 h10 m20 0 h10 m54 0 h10 m0 0 h10 m122 0 h10 m0 0 h10 m-246 0 h20 m226 0 h20 m-266 0 q10 0 10 10 m246 0 q0 -10 10 -10 m-256 10 v24 m246 0 v-24 m-246 24 q0 10 10 10 m226 0 q10 0 10 -10 m-236 10 h10 m60 0 h10 m0 0 h10 m126 0 h10 m20 -44 h10 m20 0 h10 m3 0 h-3"/>
   <polygon points="489 17 497 13 497 21"/>
   <polygon points="489 17 481 13 481 21"/>
</svg>
