<?xml version="1.0" encoding="UTF-8"?>
<svg xmlns="http://www.w3.org/2000/svg" width="903" height="201">
   <defs>
      <style type="text/css">
    @namespace "http://www.w3.org/2000/svg";
    .line                 {fill: none; stroke: #003322; stroke-width: 1;}
    .bold-line            {stroke: #00140E; shape-rendering: crispEdges; stroke-width: 2;}
    .thin-line            {stroke: #001F14; shape-rendering: crispEdges}
    .filled               {fill: #003322; stroke: none;}
    text.terminal         {font-family: Verdana, Sans-serif;
                            font-size: 12px;
                            fill: #00140E;
                            font-weight: bold;
                          }
    text.nonterminal      {font-family: Verdana, Sans-serif;
                            font-size: 12px;
                            fill: #001A11;
                            font-weight: normal;
                          }
    text.regexp           {font-family: Verdana, Sans-serif;
                            font-size: 12px;
                            fill: #001F14;
                            font-weight: normal;
                          }
    rect, circle, polygon {fill: #003322; stroke: #003322;}
    rect.terminal         {fill: #4DFFC3; stroke: #003322; stroke-width: 1;}
    rect.nonterminal      {fill: #9EFFDF; stroke: #003322; stroke-width: 1;}
    rect.text             {fill: none; stroke: none;}
    polygon.regexp        {fill: #C7FFEC; stroke: #003322; stroke-width: 1;}
  </style>
   </defs>
   <polygon points="9 17 1 13 1 21"/>
   <polygon points="17 17 9 13 9 21"/>
   <rect x="31" y="3" width="102" height="32" rx="10"/>
   <rect x="29"
         y="1"
         width="102"
         height="32"
         class="terminal"
         rx="10"/>
   <text class="terminal" x="39" y="21">cardContent</text>
   <rect x="153" y="3" width="20" height="32" rx="10"/>
   <rect x="151"
         y="1"
         width="20"
         height="32"
         class="terminal"
         rx="10"/>
   <text class="terminal" x="161" y="21"/>
   <rect x="213" y="35" width="46" height="32" rx="10"/>
   <rect x="211"
         y="33"
         width="46"
         height="32"
         class="terminal"
         rx="10"/>
   <text class="terminal" x="221" y="53">title</text>
   <rect x="279" y="35" width="24" height="32" rx="10"/>
   <rect x="277"
         y="33"
         width="24"
         height="32"
         class="terminal"
         rx="10"/>
   <text class="terminal" x="287" y="53">:</text>
   <a xmlns:xlink="http://www.w3.org/1999/xlink"
      xlink:href="#enhancedSimpleValue"
      xlink:title="enhancedSimpleValue">
      <rect x="323" y="35" width="160" height="32"/>
      <rect x="321" y="33" width="160" height="32" class="nonterminal"/>
      <text class="nonterminal" x="331" y="53">enhancedSimpleValue</text>
   </a>
   <rect x="543" y="35" width="94" height="32" rx="10"/>
   <rect x="541"
         y="33"
         width="94"
         height="32"
         class="terminal"
         rx="10"/>
   <text class="terminal" x="551" y="53">description</text>
   <rect x="657" y="35" width="24" height="32" rx="10"/>
   <rect x="655"
         y="33"
         width="24"
         height="32"
         class="terminal"
         rx="10"/>
   <text class="terminal" x="665" y="53">:</text>
   <a xmlns:xlink="http://www.w3.org/1999/xlink"
      xlink:href="#enhancedSimpleValue"
      xlink:title="enhancedSimpleValue">
      <rect x="701" y="35" width="160" height="32"/>
      <rect x="699" y="33" width="160" height="32" class="nonterminal"/>
      <text class="nonterminal" x="709" y="53">enhancedSimpleValue</text>
   </a>
   <a xmlns:xlink="http://www.w3.org/1999/xlink"
      xlink:href="#media"
      xlink:title="media">
      <rect x="579" y="167" width="58" height="32"/>
      <rect x="577" y="165" width="58" height="32" class="nonterminal"/>
      <text class="nonterminal" x="587" y="185">media</text>
   </a>
   <a xmlns:xlink="http://www.w3.org/1999/xlink"
      xlink:href="#cardSuggestion"
      xlink:title="cardSuggestion">
      <rect x="697" y="101" width="118" height="32"/>
      <rect x="695" y="99" width="118" height="32" class="nonterminal"/>
      <text class="nonterminal" x="705" y="119">cardSuggestion</text>
   </a>
   <rect x="855" y="135" width="20" height="32" rx="10"/>
   <rect x="853"
         y="133"
         width="20"
         height="32"
         class="terminal"
         rx="10"/>
   <text class="terminal" x="863" y="153"/>
   <path class="line"
         d="m17 17 h2 m0 0 h10 m102 0 h10 m0 0 h10 m20 0 h10 m20 0 h10 m0 0 h280 m-310 0 h20 m290 0 h20 m-330 0 q10 0 10 10 m310 0 q0 -10 10 -10 m-320 10 v12 m310 0 v-12 m-310 12 q0 10 10 10 m290 0 q10 0 10 -10 m-300 10 h10 m46 0 h10 m0 0 h10 m24 0 h10 m0 0 h10 m160 0 h10 m40 -32 h10 m0 0 h328 m-358 0 h20 m338 0 h20 m-378 0 q10 0 10 10 m358 0 q0 -10 10 -10 m-368 10 v12 m358 0 v-12 m-358 12 q0 10 10 10 m338 0 q10 0 10 -10 m-348 10 h10 m94 0 h10 m0 0 h10 m24 0 h10 m0 0 h10 m160 0 h10 m22 -32 l2 0 m2 0 l2 0 m2 0 l2 0 m-366 132 l2 0 m2 0 l2 0 m2 0 l2 0 m22 0 h10 m0 0 h68 m-98 0 h20 m78 0 h20 m-118 0 q10 0 10 10 m98 0 q0 -10 10 -10 m-108 10 v12 m98 0 v-12 m-98 12 q0 10 10 10 m78 0 q10 0 10 -10 m-88 10 h10 m58 0 h10 m40 -32 h10 m0 0 h128 m-158 0 l20 0 m-1 0 q-9 0 -9 -10 l0 -14 q0 -10 10 -10 m138 34 l20 0 m-20 0 q10 0 10 -10 l0 -14 q0 -10 -10 -10 m-138 0 h10 m118 0 h10 m20 34 h10 m20 0 h10 m3 0 h-3"/>
   <polygon points="893 149 901 145 901 153"/>
   <polygon points="893 149 885 145 885 153"/>
</svg>
