<?xml version="1.0" encoding="UTF-8"?>
<svg xmlns="http://www.w3.org/2000/svg" width="791" height="85">
   <defs>
      <style type="text/css">
    @namespace "http://www.w3.org/2000/svg";
    .line                 {fill: none; stroke: #003322; stroke-width: 1;}
    .bold-line            {stroke: #00140E; shape-rendering: crispEdges; stroke-width: 2;}
    .thin-line            {stroke: #001F14; shape-rendering: crispEdges}
    .filled               {fill: #003322; stroke: none;}
    text.terminal         {font-family: Verdana, Sans-serif;
                            font-size: 12px;
                            fill: #00140E;
                            font-weight: bold;
                          }
    text.nonterminal      {font-family: Verdana, Sans-serif;
                            font-size: 12px;
                            fill: #001A11;
                            font-weight: normal;
                          }
    text.regexp           {font-family: Verdana, Sans-serif;
                            font-size: 12px;
                            fill: #001F14;
                            font-weight: normal;
                          }
    rect, circle, polygon {fill: #003322; stroke: #003322;}
    rect.terminal         {fill: #4DFFC3; stroke: #003322; stroke-width: 1;}
    rect.nonterminal      {fill: #9EFFDF; stroke: #003322; stroke-width: 1;}
    rect.text             {fill: none; stroke: none;}
    polygon.regexp        {fill: #C7FFEC; stroke: #003322; stroke-width: 1;}
  </style>
   </defs>
   <polygon points="9 33 1 29 1 37"/>
   <polygon points="17 33 9 29 9 37"/>
   <rect x="31" y="19" width="108" height="32" rx="10"/>
   <rect x="29"
         y="17"
         width="108"
         height="32"
         class="terminal"
         rx="10"/>
   <text class="terminal" x="39" y="37">carouselCard</text>
   <rect x="159" y="19" width="20" height="32" rx="10"/>
   <rect x="157"
         y="17"
         width="20"
         height="32"
         class="terminal"
         rx="10"/>
   <text class="terminal" x="167" y="37"/>
   <rect x="219" y="51" width="90" height="32" rx="10"/>
   <rect x="217"
         y="49"
         width="90"
         height="32"
         class="terminal"
         rx="10"/>
   <text class="terminal" x="227" y="69">cardWidth</text>
   <rect x="329" y="51" width="24" height="32" rx="10"/>
   <rect x="327"
         y="49"
         width="24"
         height="32"
         class="terminal"
         rx="10"/>
   <text class="terminal" x="337" y="69">:</text>
   <a xmlns:xlink="http://www.w3.org/1999/xlink"
      xlink:href="#ATOM"
      xlink:title="ATOM">
      <rect x="373" y="51" width="54" height="32"/>
      <rect x="371" y="49" width="54" height="32" class="nonterminal"/>
      <text class="nonterminal" x="381" y="69">ATOM</text>
   </a>
   <a xmlns:xlink="http://www.w3.org/1999/xlink"
      xlink:href="#cardContent"
      xlink:title="cardContent">
      <rect x="467" y="19" width="98" height="32"/>
      <rect x="465" y="17" width="98" height="32" class="nonterminal"/>
      <text class="nonterminal" x="475" y="37">cardContent</text>
   </a>
   <a xmlns:xlink="http://www.w3.org/1999/xlink"
      xlink:href="#cardContent"
      xlink:title="cardContent">
      <rect x="605" y="19" width="98" height="32"/>
      <rect x="603" y="17" width="98" height="32" class="nonterminal"/>
      <text class="nonterminal" x="613" y="37">cardContent</text>
   </a>
   <rect x="743" y="19" width="20" height="32" rx="10"/>
   <rect x="741"
         y="17"
         width="20"
         height="32"
         class="terminal"
         rx="10"/>
   <text class="terminal" x="751" y="37"/>
   <path class="line"
         d="m17 33 h2 m0 0 h10 m108 0 h10 m0 0 h10 m20 0 h10 m20 0 h10 m0 0 h218 m-248 0 h20 m228 0 h20 m-268 0 q10 0 10 10 m248 0 q0 -10 10 -10 m-258 10 v12 m248 0 v-12 m-248 12 q0 10 10 10 m228 0 q10 0 10 -10 m-238 10 h10 m90 0 h10 m0 0 h10 m24 0 h10 m0 0 h10 m54 0 h10 m20 -32 h10 m98 0 h10 m20 0 h10 m98 0 h10 m-138 0 l20 0 m-1 0 q-9 0 -9 -10 l0 -12 q0 -10 10 -10 m118 32 l20 0 m-20 0 q10 0 10 -10 l0 -12 q0 -10 -10 -10 m-118 0 h10 m0 0 h108 m20 32 h10 m20 0 h10 m3 0 h-3"/>
   <polygon points="781 33 789 29 789 37"/>
   <polygon points="781 33 773 29 773 37"/>
</svg>
