<?xml version="1.0" encoding="UTF-8"?>
<svg xmlns="http://www.w3.org/2000/svg" width="467" height="37">
   <defs>
      <style type="text/css">
    @namespace "http://www.w3.org/2000/svg";
    .line                 {fill: none; stroke: #003322; stroke-width: 1;}
    .bold-line            {stroke: #00140E; shape-rendering: crispEdges; stroke-width: 2;}
    .thin-line            {stroke: #001F14; shape-rendering: crispEdges}
    .filled               {fill: #003322; stroke: none;}
    text.terminal         {font-family: Verdana, Sans-serif;
                            font-size: 12px;
                            fill: #00140E;
                            font-weight: bold;
                          }
    text.nonterminal      {font-family: Verdana, Sans-serif;
                            font-size: 12px;
                            fill: #001A11;
                            font-weight: normal;
                          }
    text.regexp           {font-family: Verdana, Sans-serif;
                            font-size: 12px;
                            fill: #001F14;
                            font-weight: normal;
                          }
    rect, circle, polygon {fill: #003322; stroke: #003322;}
    rect.terminal         {fill: #4DFFC3; stroke: #003322; stroke-width: 1;}
    rect.nonterminal      {fill: #9EFFDF; stroke: #003322; stroke-width: 1;}
    rect.text             {fill: none; stroke: none;}
    polygon.regexp        {fill: #C7FFEC; stroke: #003322; stroke-width: 1;}
  </style>
   </defs>
   <polygon points="9 17 1 13 1 21"/>
   <polygon points="17 17 9 13 9 21"/>
   <rect x="31" y="3" width="166" height="32" rx="10"/>
   <rect x="29"
         y="1"
         width="166"
         height="32"
         class="terminal"
         rx="10"/>
   <text class="terminal" x="39" y="21">composeTextMessage</text>
   <rect x="217" y="3" width="20" height="32" rx="10"/>
   <rect x="215"
         y="1"
         width="20"
         height="32"
         class="terminal"
         rx="10"/>
   <text class="terminal" x="225" y="21"/>
   <a xmlns:xlink="http://www.w3.org/1999/xlink"
      xlink:href="#inlineParameterList"
      xlink:title="inlineParameterList">
      <rect x="257" y="3" width="142" height="32"/>
      <rect x="255" y="1" width="142" height="32" class="nonterminal"/>
      <text class="nonterminal" x="265" y="21">inlineParameterList</text>
   </a>
   <rect x="419" y="3" width="20" height="32" rx="10"/>
   <rect x="417"
         y="1"
         width="20"
         height="32"
         class="terminal"
         rx="10"/>
   <text class="terminal" x="427" y="21"/>
   <path class="line"
         d="m17 17 h2 m0 0 h10 m166 0 h10 m0 0 h10 m20 0 h10 m0 0 h10 m142 0 h10 m0 0 h10 m20 0 h10 m3 0 h-3"/>
   <polygon points="457 17 465 13 465 21"/>
   <polygon points="457 17 449 13 449 21"/>
</svg>
