<?xml version="1.0" encoding="UTF-8"?>
<svg xmlns="http://www.w3.org/2000/svg" width="915" height="103">
   <defs>
      <style type="text/css">
    @namespace "http://www.w3.org/2000/svg";
    .line                 {fill: none; stroke: #003322; stroke-width: 1;}
    .bold-line            {stroke: #00140E; shape-rendering: crispEdges; stroke-width: 2;}
    .thin-line            {stroke: #001F14; shape-rendering: crispEdges}
    .filled               {fill: #003322; stroke: none;}
    text.terminal         {font-family: Verdana, Sans-serif;
                            font-size: 12px;
                            fill: #00140E;
                            font-weight: bold;
                          }
    text.nonterminal      {font-family: Verdana, Sans-serif;
                            font-size: 12px;
                            fill: #001A11;
                            font-weight: normal;
                          }
    text.regexp           {font-family: Verdana, Sans-serif;
                            font-size: 12px;
                            fill: #001F14;
                            font-weight: normal;
                          }
    rect, circle, polygon {fill: #003322; stroke: #003322;}
    rect.terminal         {fill: #4DFFC3; stroke: #003322; stroke-width: 1;}
    rect.nonterminal      {fill: #9EFFDF; stroke: #003322; stroke-width: 1;}
    rect.text             {fill: none; stroke: none;}
    polygon.regexp        {fill: #C7FFEC; stroke: #003322; stroke-width: 1;}
  </style>
   </defs>
   <polygon points="9 17 1 13 1 21"/>
   <polygon points="17 17 9 13 9 21"/>
   <rect x="31" y="3" width="160" height="32" rx="10"/>
   <rect x="29"
         y="1"
         width="160"
         height="32"
         class="terminal"
         rx="10"/>
   <text class="terminal" x="39" y="21">createCalendarEvent</text>
   <a xmlns:xlink="http://www.w3.org/1999/xlink"
      xlink:href="#enhancedSimpleValue"
      xlink:title="enhancedSimpleValue">
      <rect x="211" y="3" width="160" height="32"/>
      <rect x="209" y="1" width="160" height="32" class="nonterminal"/>
      <text class="nonterminal" x="219" y="21">enhancedSimpleValue</text>
   </a>
   <rect x="391" y="3" width="20" height="32" rx="10"/>
   <rect x="389"
         y="1"
         width="20"
         height="32"
         class="terminal"
         rx="10"/>
   <text class="terminal" x="399" y="21"/>
   <rect x="431" y="3" width="58" height="32" rx="10"/>
   <rect x="429"
         y="1"
         width="58"
         height="32"
         class="terminal"
         rx="10"/>
   <text class="terminal" x="439" y="21">event</text>
   <a xmlns:xlink="http://www.w3.org/1999/xlink"
      xlink:href="#enhancedSimpleValue"
      xlink:title="enhancedSimpleValue">
      <rect x="509" y="3" width="160" height="32"/>
      <rect x="507" y="1" width="160" height="32" class="nonterminal"/>
      <text class="nonterminal" x="517" y="21">enhancedSimpleValue</text>
   </a>
   <a xmlns:xlink="http://www.w3.org/1999/xlink"
      xlink:href="#typedValue"
      xlink:title="typedValue">
      <rect x="689" y="3" width="92" height="32"/>
      <rect x="687" y="1" width="92" height="32" class="nonterminal"/>
      <text class="nonterminal" x="697" y="21">typedValue</text>
   </a>
   <a xmlns:xlink="http://www.w3.org/1999/xlink"
      xlink:href="#typedValue"
      xlink:title="typedValue">
      <rect x="801" y="3" width="92" height="32"/>
      <rect x="799" y="1" width="92" height="32" class="nonterminal"/>
      <text class="nonterminal" x="809" y="21">typedValue</text>
   </a>
   <a xmlns:xlink="http://www.w3.org/1999/xlink"
      xlink:href="#enhancedSimpleValue"
      xlink:title="enhancedSimpleValue">
      <rect x="687" y="69" width="160" height="32"/>
      <rect x="685" y="67" width="160" height="32" class="nonterminal"/>
      <text class="nonterminal" x="695" y="87">enhancedSimpleValue</text>
   </a>
   <rect x="867" y="69" width="20" height="32" rx="10"/>
   <rect x="865"
         y="67"
         width="20"
         height="32"
         class="terminal"
         rx="10"/>
   <text class="terminal" x="875" y="87"/>
   <path class="line"
         d="m17 17 h2 m0 0 h10 m160 0 h10 m0 0 h10 m160 0 h10 m0 0 h10 m20 0 h10 m0 0 h10 m58 0 h10 m0 0 h10 m160 0 h10 m0 0 h10 m92 0 h10 m0 0 h10 m92 0 h10 m2 0 l2 0 m2 0 l2 0 m2 0 l2 0 m-250 66 l2 0 m2 0 l2 0 m2 0 l2 0 m2 0 h10 m160 0 h10 m0 0 h10 m20 0 h10 m3 0 h-3"/>
   <polygon points="905 83 913 79 913 87"/>
   <polygon points="905 83 897 79 897 87"/>
</svg>
