<?xml version="1.0" encoding="UTF-8"?>
<svg xmlns="http://www.w3.org/2000/svg" width="217" height="37">
   <defs>
      <style type="text/css">
    @namespace "http://www.w3.org/2000/svg";
    .line                 {fill: none; stroke: #003322; stroke-width: 1;}
    .bold-line            {stroke: #00140E; shape-rendering: crispEdges; stroke-width: 2;}
    .thin-line            {stroke: #001F14; shape-rendering: crispEdges}
    .filled               {fill: #003322; stroke: none;}
    text.terminal         {font-family: Verdana, Sans-serif;
                            font-size: 12px;
                            fill: #00140E;
                            font-weight: bold;
                          }
    text.nonterminal      {font-family: Verdana, Sans-serif;
                            font-size: 12px;
                            fill: #001A11;
                            font-weight: normal;
                          }
    text.regexp           {font-family: Verdana, Sans-serif;
                            font-size: 12px;
                            fill: #001F14;
                            font-weight: normal;
                          }
    rect, circle, polygon {fill: #003322; stroke: #003322;}
    rect.terminal         {fill: #4DFFC3; stroke: #003322; stroke-width: 1;}
    rect.nonterminal      {fill: #9EFFDF; stroke: #003322; stroke-width: 1;}
    rect.text             {fill: none; stroke: none;}
    polygon.regexp        {fill: #C7FFEC; stroke: #003322; stroke-width: 1;}
  </style>
   </defs>
   <polygon points="9 17 1 13 1 21"/>
   <polygon points="17 17 9 13 9 21"/>
   <rect x="31" y="3" width="24" height="32" rx="10"/>
   <rect x="29"
         y="1"
         width="24"
         height="32"
         class="terminal"
         rx="10"/>
   <text class="terminal" x="39" y="21">.</text>
   <a xmlns:xlink="http://www.w3.org/1999/xlink"
      xlink:href="#INTEGER_PART"
      xlink:title="INTEGER_PART">
      <rect x="75" y="3" width="114" height="32"/>
      <rect x="73" y="1" width="114" height="32" class="nonterminal"/>
      <text class="nonterminal" x="83" y="21">INTEGER_PART</text>
   </a>
   <path class="line"
         d="m17 17 h2 m0 0 h10 m24 0 h10 m0 0 h10 m114 0 h10 m3 0 h-3"/>
   <polygon points="207 17 215 13 215 21"/>
   <polygon points="207 17 199 13 199 21"/>
</svg>
