<?xml version="1.0" encoding="UTF-8"?>
<svg xmlns="http://www.w3.org/2000/svg" width="499" height="301">
   <defs>
      <style type="text/css">
    @namespace "http://www.w3.org/2000/svg";
    .line                 {fill: none; stroke: #003322; stroke-width: 1;}
    .bold-line            {stroke: #00140E; shape-rendering: crispEdges; stroke-width: 2;}
    .thin-line            {stroke: #001F14; shape-rendering: crispEdges}
    .filled               {fill: #003322; stroke: none;}
    text.terminal         {font-family: Verdana, Sans-serif;
                            font-size: 12px;
                            fill: #00140E;
                            font-weight: bold;
                          }
    text.nonterminal      {font-family: Verdana, Sans-serif;
                            font-size: 12px;
                            fill: #001A11;
                            font-weight: normal;
                          }
    text.regexp           {font-family: Verdana, Sans-serif;
                            font-size: 12px;
                            fill: #001F14;
                            font-weight: normal;
                          }
    rect, circle, polygon {fill: #003322; stroke: #003322;}
    rect.terminal         {fill: #4DFFC3; stroke: #003322; stroke-width: 1;}
    rect.nonterminal      {fill: #9EFFDF; stroke: #003322; stroke-width: 1;}
    rect.text             {fill: none; stroke: none;}
    polygon.regexp        {fill: #C7FFEC; stroke: #003322; stroke-width: 1;}
  </style>
   </defs>
   <polygon points="9 17 1 13 1 21"/>
   <polygon points="17 17 9 13 9 21"/>
   <rect x="51" y="3" width="140" height="32" rx="10"/>
   <rect x="49"
         y="1"
         width="140"
         height="32"
         class="terminal"
         rx="10"/>
   <text class="terminal" x="59" y="21">fallback_message</text>
   <rect x="211" y="3" width="24" height="32" rx="10"/>
   <rect x="209"
         y="1"
         width="24"
         height="32"
         class="terminal"
         rx="10"/>
   <text class="terminal" x="219" y="21">:</text>
   <a xmlns:xlink="http://www.w3.org/1999/xlink"
      xlink:href="#enhancedSimpleValue"
      xlink:title="enhancedSimpleValue">
      <rect x="255" y="3" width="160" height="32"/>
      <rect x="253" y="1" width="160" height="32" class="nonterminal"/>
      <text class="nonterminal" x="263" y="21">enhancedSimpleValue</text>
   </a>
   <rect x="51" y="47" width="154" height="32" rx="10"/>
   <rect x="49"
         y="45"
         width="154"
         height="32"
         class="terminal"
         rx="10"/>
   <text class="terminal" x="59" y="65">messageTrafficType</text>
   <rect x="225" y="47" width="24" height="32" rx="10"/>
   <rect x="223"
         y="45"
         width="24"
         height="32"
         class="terminal"
         rx="10"/>
   <text class="terminal" x="233" y="65">:</text>
   <a xmlns:xlink="http://www.w3.org/1999/xlink"
      xlink:href="#ATOM"
      xlink:title="ATOM">
      <rect x="269" y="47" width="54" height="32"/>
      <rect x="267" y="45" width="54" height="32" class="nonterminal"/>
      <text class="nonterminal" x="277" y="65">ATOM</text>
   </a>
   <rect x="51" y="91" width="34" height="32" rx="10"/>
   <rect x="49"
         y="89"
         width="34"
         height="32"
         class="terminal"
         rx="10"/>
   <text class="terminal" x="59" y="109">ttl</text>
   <rect x="105" y="91" width="24" height="32" rx="10"/>
   <rect x="103"
         y="89"
         width="24"
         height="32"
         class="terminal"
         rx="10"/>
   <text class="terminal" x="113" y="109">:</text>
   <a xmlns:xlink="http://www.w3.org/1999/xlink"
      xlink:href="#ISO_DURATION_LITERAL"
      xlink:title="ISO_DURATION_LITERAL">
      <rect x="149" y="91" width="174" height="32"/>
      <rect x="147" y="89" width="174" height="32" class="nonterminal"/>
      <text class="nonterminal" x="157" y="109">ISO_DURATION_LITERAL</text>
   </a>
   <rect x="51" y="135" width="112" height="32" rx="10"/>
   <rect x="49"
         y="133"
         width="112"
         height="32"
         class="terminal"
         rx="10"/>
   <text class="terminal" x="59" y="153">postbackData</text>
   <rect x="183" y="135" width="24" height="32" rx="10"/>
   <rect x="181"
         y="133"
         width="24"
         height="32"
         class="terminal"
         rx="10"/>
   <text class="terminal" x="191" y="153">:</text>
   <a xmlns:xlink="http://www.w3.org/1999/xlink"
      xlink:href="#expression"
      xlink:title="expression">
      <rect x="227" y="135" width="90" height="32"/>
      <rect x="225" y="133" width="90" height="32" class="nonterminal"/>
      <text class="nonterminal" x="235" y="153">expression</text>
   </a>
   <rect x="51" y="179" width="100" height="32" rx="10"/>
   <rect x="49"
         y="177"
         width="100"
         height="32"
         class="terminal"
         rx="10"/>
   <text class="terminal" x="59" y="197">expressions</text>
   <rect x="171" y="179" width="20" height="32" rx="10"/>
   <rect x="169"
         y="177"
         width="20"
         height="32"
         class="terminal"
         rx="10"/>
   <text class="terminal" x="179" y="197"/>
   <rect x="211" y="179" width="82" height="32" rx="10"/>
   <rect x="209"
         y="177"
         width="82"
         height="32"
         class="terminal"
         rx="10"/>
   <text class="terminal" x="219" y="197">language</text>
   <rect x="313" y="179" width="24" height="32" rx="10"/>
   <rect x="311"
         y="177"
         width="24"
         height="32"
         class="terminal"
         rx="10"/>
   <text class="terminal" x="321" y="197">:</text>
   <a xmlns:xlink="http://www.w3.org/1999/xlink"
      xlink:href="#ATOM"
      xlink:title="ATOM">
      <rect x="357" y="179" width="54" height="32"/>
      <rect x="355" y="177" width="54" height="32" class="nonterminal"/>
      <text class="nonterminal" x="365" y="197">ATOM</text>
   </a>
   <rect x="431" y="179" width="20" height="32" rx="10"/>
   <rect x="429"
         y="177"
         width="20"
         height="32"
         class="terminal"
         rx="10"/>
   <text class="terminal" x="439" y="197"/>
   <rect x="51" y="223" width="82" height="32" rx="10"/>
   <rect x="49"
         y="221"
         width="82"
         height="32"
         class="terminal"
         rx="10"/>
   <text class="terminal" x="59" y="241">timeZone</text>
   <rect x="153" y="223" width="24" height="32" rx="10"/>
   <rect x="151"
         y="221"
         width="24"
         height="32"
         class="terminal"
         rx="10"/>
   <text class="terminal" x="161" y="241">:</text>
   <a xmlns:xlink="http://www.w3.org/1999/xlink"
      xlink:href="#STRING"
      xlink:title="STRING">
      <rect x="217" y="223" width="66" height="32"/>
      <rect x="215" y="221" width="66" height="32" class="nonterminal"/>
      <text class="nonterminal" x="225" y="241">STRING</text>
   </a>
   <a xmlns:xlink="http://www.w3.org/1999/xlink"
      xlink:href="#expression"
      xlink:title="expression">
      <rect x="217" y="267" width="90" height="32"/>
      <rect x="215" y="265" width="90" height="32" class="nonterminal"/>
      <text class="nonterminal" x="225" y="285">expression</text>
   </a>
   <path class="line"
         d="m17 17 h2 m20 0 h10 m140 0 h10 m0 0 h10 m24 0 h10 m0 0 h10 m160 0 h10 m0 0 h36 m-440 0 h20 m420 0 h20 m-460 0 q10 0 10 10 m440 0 q0 -10 10 -10 m-450 10 v24 m440 0 v-24 m-440 24 q0 10 10 10 m420 0 q10 0 10 -10 m-430 10 h10 m154 0 h10 m0 0 h10 m24 0 h10 m0 0 h10 m54 0 h10 m0 0 h128 m-430 -10 v20 m440 0 v-20 m-440 20 v24 m440 0 v-24 m-440 24 q0 10 10 10 m420 0 q10 0 10 -10 m-430 10 h10 m34 0 h10 m0 0 h10 m24 0 h10 m0 0 h10 m174 0 h10 m0 0 h128 m-430 -10 v20 m440 0 v-20 m-440 20 v24 m440 0 v-24 m-440 24 q0 10 10 10 m420 0 q10 0 10 -10 m-430 10 h10 m112 0 h10 m0 0 h10 m24 0 h10 m0 0 h10 m90 0 h10 m0 0 h134 m-430 -10 v20 m440 0 v-20 m-440 20 v24 m440 0 v-24 m-440 24 q0 10 10 10 m420 0 q10 0 10 -10 m-430 10 h10 m100 0 h10 m0 0 h10 m20 0 h10 m0 0 h10 m82 0 h10 m0 0 h10 m24 0 h10 m0 0 h10 m54 0 h10 m0 0 h10 m20 0 h10 m-430 -10 v20 m440 0 v-20 m-440 20 v24 m440 0 v-24 m-440 24 q0 10 10 10 m420 0 q10 0 10 -10 m-430 10 h10 m82 0 h10 m0 0 h10 m24 0 h10 m20 0 h10 m66 0 h10 m0 0 h24 m-130 0 h20 m110 0 h20 m-150 0 q10 0 10 10 m130 0 q0 -10 10 -10 m-140 10 v24 m130 0 v-24 m-130 24 q0 10 10 10 m110 0 q10 0 10 -10 m-120 10 h10 m90 0 h10 m20 -44 h124 m23 -220 h-3"/>
   <polygon points="489 17 497 13 497 21"/>
   <polygon points="489 17 481 13 481 21"/>
</svg>
