<?xml version="1.0" encoding="UTF-8"?>
<svg xmlns="http://www.w3.org/2000/svg" width="757" height="85">
   <defs>
      <style type="text/css">
    @namespace "http://www.w3.org/2000/svg";
    .line                 {fill: none; stroke: #003322; stroke-width: 1;}
    .bold-line            {stroke: #00140E; shape-rendering: crispEdges; stroke-width: 2;}
    .thin-line            {stroke: #001F14; shape-rendering: crispEdges}
    .filled               {fill: #003322; stroke: none;}
    text.terminal         {font-family: Verdana, Sans-serif;
                            font-size: 12px;
                            fill: #00140E;
                            font-weight: bold;
                          }
    text.nonterminal      {font-family: Verdana, Sans-serif;
                            font-size: 12px;
                            fill: #001A11;
                            font-weight: normal;
                          }
    text.regexp           {font-family: Verdana, Sans-serif;
                            font-size: 12px;
                            fill: #001F14;
                            font-weight: normal;
                          }
    rect, circle, polygon {fill: #003322; stroke: #003322;}
    rect.terminal         {fill: #4DFFC3; stroke: #003322; stroke-width: 1;}
    rect.nonterminal      {fill: #9EFFDF; stroke: #003322; stroke-width: 1;}
    rect.text             {fill: none; stroke: none;}
    polygon.regexp        {fill: #C7FFEC; stroke: #003322; stroke-width: 1;}
  </style>
   </defs>
   <polygon points="9 33 1 29 1 37"/>
   <polygon points="17 33 9 29 9 37"/>
   <a xmlns:xlink="http://www.w3.org/1999/xlink"
      xlink:href="#flowOperandOrExpression"
      xlink:title="flowOperandOrExpression">
      <rect x="31" y="19" width="184" height="32"/>
      <rect x="29" y="17" width="184" height="32" class="nonterminal"/>
      <text class="nonterminal" x="39" y="37">flowOperandOrExpression</text>
   </a>
   <rect x="255" y="19" width="36" height="32" rx="10"/>
   <rect x="253"
         y="17"
         width="36"
         height="32"
         class="terminal"
         rx="10"/>
   <text class="terminal" x="263" y="37">-&gt;</text>
   <a xmlns:xlink="http://www.w3.org/1999/xlink"
      xlink:href="#flowOperandOrExpression"
      xlink:title="flowOperandOrExpression">
      <rect x="311" y="19" width="184" height="32"/>
      <rect x="309" y="17" width="184" height="32" class="nonterminal"/>
      <text class="nonterminal" x="319" y="37">flowOperandOrExpression</text>
   </a>
   <a xmlns:xlink="http://www.w3.org/1999/xlink"
      xlink:href="#enhancedWithClause"
      xlink:title="enhancedWithClause">
      <rect x="555" y="51" width="154" height="32"/>
      <rect x="553" y="49" width="154" height="32" class="nonterminal"/>
      <text class="nonterminal" x="563" y="69">enhancedWithClause</text>
   </a>
   <path class="line"
         d="m17 33 h2 m0 0 h10 m184 0 h10 m20 0 h10 m36 0 h10 m0 0 h10 m184 0 h10 m-280 0 l20 0 m-1 0 q-9 0 -9 -10 l0 -12 q0 -10 10 -10 m260 32 l20 0 m-20 0 q10 0 10 -10 l0 -12 q0 -10 -10 -10 m-260 0 h10 m0 0 h250 m40 32 h10 m0 0 h164 m-194 0 h20 m174 0 h20 m-214 0 q10 0 10 10 m194 0 q0 -10 10 -10 m-204 10 v12 m194 0 v-12 m-194 12 q0 10 10 10 m174 0 q10 0 10 -10 m-184 10 h10 m154 0 h10 m23 -32 h-3"/>
   <polygon points="747 33 755 29 755 37"/>
   <polygon points="747 33 739 29 739 37"/>
</svg>
