<?xml version="1.0" encoding="UTF-8"?>
<svg xmlns="http://www.w3.org/2000/svg" width="497" height="71">
   <defs>
      <style type="text/css">
    @namespace "http://www.w3.org/2000/svg";
    .line                 {fill: none; stroke: #003322; stroke-width: 1;}
    .bold-line            {stroke: #00140E; shape-rendering: crispEdges; stroke-width: 2;}
    .thin-line            {stroke: #001F14; shape-rendering: crispEdges}
    .filled               {fill: #003322; stroke: none;}
    text.terminal         {font-family: Verdana, Sans-serif;
                            font-size: 12px;
                            fill: #00140E;
                            font-weight: bold;
                          }
    text.nonterminal      {font-family: Verdana, Sans-serif;
                            font-size: 12px;
                            fill: #001A11;
                            font-weight: normal;
                          }
    text.regexp           {font-family: Verdana, Sans-serif;
                            font-size: 12px;
                            fill: #001F14;
                            font-weight: normal;
                          }
    rect, circle, polygon {fill: #003322; stroke: #003322;}
    rect.terminal         {fill: #4DFFC3; stroke: #003322; stroke-width: 1;}
    rect.nonterminal      {fill: #9EFFDF; stroke: #003322; stroke-width: 1;}
    rect.text             {fill: none; stroke: none;}
    polygon.regexp        {fill: #C7FFEC; stroke: #003322; stroke-width: 1;}
  </style>
   </defs>
   <polygon points="9 51 1 47 1 55"/>
   <polygon points="17 51 9 47 9 55"/>
   <rect x="31" y="37" width="48" height="32" rx="10"/>
   <rect x="29"
         y="35"
         width="48"
         height="32"
         class="terminal"
         rx="10"/>
   <text class="terminal" x="39" y="55">flow</text>
   <a xmlns:xlink="http://www.w3.org/1999/xlink"
      xlink:href="#IDENTIFIER"
      xlink:title="IDENTIFIER">
      <rect x="99" y="37" width="92" height="32"/>
      <rect x="97" y="35" width="92" height="32" class="nonterminal"/>
      <text class="nonterminal" x="107" y="55">IDENTIFIER</text>
   </a>
   <rect x="211" y="37" width="20" height="32" rx="10"/>
   <rect x="209"
         y="35"
         width="20"
         height="32"
         class="terminal"
         rx="10"/>
   <text class="terminal" x="219" y="55"/>
   <a xmlns:xlink="http://www.w3.org/1999/xlink"
      xlink:href="#enhancedFlowRule"
      xlink:title="enhancedFlowRule">
      <rect x="271" y="3" width="138" height="32"/>
      <rect x="269" y="1" width="138" height="32" class="nonterminal"/>
      <text class="nonterminal" x="279" y="21">enhancedFlowRule</text>
   </a>
   <rect x="449" y="37" width="20" height="32" rx="10"/>
   <rect x="447"
         y="35"
         width="20"
         height="32"
         class="terminal"
         rx="10"/>
   <text class="terminal" x="457" y="55"/>
   <path class="line"
         d="m17 51 h2 m0 0 h10 m48 0 h10 m0 0 h10 m92 0 h10 m0 0 h10 m20 0 h10 m20 0 h10 m0 0 h148 m-178 0 l20 0 m-1 0 q-9 0 -9 -10 l0 -14 q0 -10 10 -10 m158 34 l20 0 m-20 0 q10 0 10 -10 l0 -14 q0 -10 -10 -10 m-158 0 h10 m138 0 h10 m20 34 h10 m20 0 h10 m3 0 h-3"/>
   <polygon points="487 51 495 47 495 55"/>
   <polygon points="487 51 479 47 479 55"/>
</svg>
