<?xml version="1.0" encoding="UTF-8"?>
<svg xmlns="http://www.w3.org/2000/svg" width="397" height="71">
   <defs>
      <style type="text/css">
    @namespace "http://www.w3.org/2000/svg";
    .line                 {fill: none; stroke: #003322; stroke-width: 1;}
    .bold-line            {stroke: #00140E; shape-rendering: crispEdges; stroke-width: 2;}
    .thin-line            {stroke: #001F14; shape-rendering: crispEdges}
    .filled               {fill: #003322; stroke: none;}
    text.terminal         {font-family: Verdana, Sans-serif;
                            font-size: 12px;
                            fill: #00140E;
                            font-weight: bold;
                          }
    text.nonterminal      {font-family: Verdana, Sans-serif;
                            font-size: 12px;
                            fill: #001A11;
                            font-weight: normal;
                          }
    text.regexp           {font-family: Verdana, Sans-serif;
                            font-size: 12px;
                            fill: #001F14;
                            font-weight: normal;
                          }
    rect, circle, polygon {fill: #003322; stroke: #003322;}
    rect.terminal         {fill: #4DFFC3; stroke: #003322; stroke-width: 1;}
    rect.nonterminal      {fill: #9EFFDF; stroke: #003322; stroke-width: 1;}
    rect.text             {fill: none; stroke: none;}
    polygon.regexp        {fill: #C7FFEC; stroke: #003322; stroke-width: 1;}
  </style>
   </defs>
   <polygon points="9 51 1 47 1 55"/>
   <polygon points="17 51 9 47 9 55"/>
   <rect x="31" y="37" width="34" height="32" rx="10"/>
   <rect x="29"
         y="35"
         width="34"
         height="32"
         class="terminal"
         rx="10"/>
   <text class="terminal" x="39" y="55">%</text>
   <rect x="85" y="37" width="28" height="32" rx="10"/>
   <rect x="83"
         y="35"
         width="28"
         height="32"
         class="terminal"
         rx="10"/>
   <text class="terminal" x="93" y="55">{</text>
   <a xmlns:xlink="http://www.w3.org/1999/xlink"
      xlink:href="#propertyAssignment"
      xlink:title="propertyAssignment">
      <rect x="153" y="3" width="148" height="32"/>
      <rect x="151" y="1" width="148" height="32" class="nonterminal"/>
      <text class="nonterminal" x="161" y="21">propertyAssignment</text>
   </a>
   <rect x="341" y="37" width="28" height="32" rx="10"/>
   <rect x="339"
         y="35"
         width="28"
         height="32"
         class="terminal"
         rx="10"/>
   <text class="terminal" x="349" y="55">}</text>
   <path class="line"
         d="m17 51 h2 m0 0 h10 m34 0 h10 m0 0 h10 m28 0 h10 m20 0 h10 m0 0 h158 m-188 0 l20 0 m-1 0 q-9 0 -9 -10 l0 -14 q0 -10 10 -10 m168 34 l20 0 m-20 0 q10 0 10 -10 l0 -14 q0 -10 -10 -10 m-168 0 h10 m148 0 h10 m20 34 h10 m28 0 h10 m3 0 h-3"/>
   <polygon points="387 51 395 47 395 55"/>
   <polygon points="387 51 379 47 379 55"/>
</svg>
