<?xml version="1.0" encoding="UTF-8"?>
<svg xmlns="http://www.w3.org/2000/svg" width="449" height="69">
   <defs>
      <style type="text/css">
    @namespace "http://www.w3.org/2000/svg";
    .line                 {fill: none; stroke: #003322; stroke-width: 1;}
    .bold-line            {stroke: #00140E; shape-rendering: crispEdges; stroke-width: 2;}
    .thin-line            {stroke: #001F14; shape-rendering: crispEdges}
    .filled               {fill: #003322; stroke: none;}
    text.terminal         {font-family: Verdana, Sans-serif;
                            font-size: 12px;
                            fill: #00140E;
                            font-weight: bold;
                          }
    text.nonterminal      {font-family: Verdana, Sans-serif;
                            font-size: 12px;
                            fill: #001A11;
                            font-weight: normal;
                          }
    text.regexp           {font-family: Verdana, Sans-serif;
                            font-size: 12px;
                            fill: #001F14;
                            font-weight: normal;
                          }
    rect, circle, polygon {fill: #003322; stroke: #003322;}
    rect.terminal         {fill: #4DFFC3; stroke: #003322; stroke-width: 1;}
    rect.nonterminal      {fill: #9EFFDF; stroke: #003322; stroke-width: 1;}
    rect.text             {fill: none; stroke: none;}
    polygon.regexp        {fill: #C7FFEC; stroke: #003322; stroke-width: 1;}
  </style>
   </defs>
   <polygon points="9 17 1 13 1 21"/>
   <polygon points="17 17 9 13 9 21"/>
   <a xmlns:xlink="http://www.w3.org/1999/xlink"
      xlink:href="#EXPONENT_MARKER"
      xlink:title="EXPONENT_MARKER">
      <rect x="31" y="3" width="146" height="32"/>
      <rect x="29" y="1" width="146" height="32" class="nonterminal"/>
      <text class="nonterminal" x="39" y="21">EXPONENT_MARKER</text>
   </a>
   <a xmlns:xlink="http://www.w3.org/1999/xlink"
      xlink:href="#SIGN"
      xlink:title="SIGN">
      <rect x="217" y="35" width="50" height="32"/>
      <rect x="215" y="33" width="50" height="32" class="nonterminal"/>
      <text class="nonterminal" x="225" y="53">SIGN</text>
   </a>
   <a xmlns:xlink="http://www.w3.org/1999/xlink"
      xlink:href="#INTEGER_PART"
      xlink:title="INTEGER_PART">
      <rect x="307" y="3" width="114" height="32"/>
      <rect x="305" y="1" width="114" height="32" class="nonterminal"/>
      <text class="nonterminal" x="315" y="21">INTEGER_PART</text>
   </a>
   <path class="line"
         d="m17 17 h2 m0 0 h10 m146 0 h10 m20 0 h10 m0 0 h60 m-90 0 h20 m70 0 h20 m-110 0 q10 0 10 10 m90 0 q0 -10 10 -10 m-100 10 v12 m90 0 v-12 m-90 12 q0 10 10 10 m70 0 q10 0 10 -10 m-80 10 h10 m50 0 h10 m20 -32 h10 m114 0 h10 m3 0 h-3"/>
   <polygon points="439 17 447 13 447 21"/>
   <polygon points="439 17 431 13 431 21"/>
</svg>
