<?xml version="1.0" encoding="UTF-8"?>
<svg xmlns="http://www.w3.org/2000/svg" width="731" height="103">
   <defs>
      <style type="text/css">
    @namespace "http://www.w3.org/2000/svg";
    .line                 {fill: none; stroke: #003322; stroke-width: 1;}
    .bold-line            {stroke: #00140E; shape-rendering: crispEdges; stroke-width: 2;}
    .thin-line            {stroke: #001F14; shape-rendering: crispEdges}
    .filled               {fill: #003322; stroke: none;}
    text.terminal         {font-family: Verdana, Sans-serif;
                            font-size: 12px;
                            fill: #00140E;
                            font-weight: bold;
                          }
    text.nonterminal      {font-family: Verdana, Sans-serif;
                            font-size: 12px;
                            fill: #001A11;
                            font-weight: normal;
                          }
    text.regexp           {font-family: Verdana, Sans-serif;
                            font-size: 12px;
                            fill: #001F14;
                            font-weight: normal;
                          }
    rect, circle, polygon {fill: #003322; stroke: #003322;}
    rect.terminal         {fill: #4DFFC3; stroke: #003322; stroke-width: 1;}
    rect.nonterminal      {fill: #9EFFDF; stroke: #003322; stroke-width: 1;}
    rect.text             {fill: none; stroke: none;}
    polygon.regexp        {fill: #C7FFEC; stroke: #003322; stroke-width: 1;}
  </style>
   </defs>
   <polygon points="9 51 1 47 1 55"/>
   <polygon points="17 51 9 47 9 55"/>
   <rect x="31" y="37" width="136" height="32" rx="10"/>
   <rect x="29"
         y="35"
         width="136"
         height="32"
         class="terminal"
         rx="10"/>
   <text class="terminal" x="39" y="55">uploadedRbmFile</text>
   <a xmlns:xlink="http://www.w3.org/1999/xlink"
      xlink:href="#STRING"
      xlink:title="STRING">
      <rect x="187" y="37" width="66" height="32"/>
      <rect x="185" y="35" width="66" height="32" class="nonterminal"/>
      <text class="nonterminal" x="195" y="55">STRING</text>
   </a>
   <a xmlns:xlink="http://www.w3.org/1999/xlink"
      xlink:href="#STRING"
      xlink:title="STRING">
      <rect x="293" y="69" width="66" height="32"/>
      <rect x="291" y="67" width="66" height="32" class="nonterminal"/>
      <text class="nonterminal" x="301" y="87">STRING</text>
   </a>
   <rect x="419" y="37" width="20" height="32" rx="10"/>
   <rect x="417"
         y="35"
         width="20"
         height="32"
         class="terminal"
         rx="10"/>
   <text class="terminal" x="427" y="55"/>
   <a xmlns:xlink="http://www.w3.org/1999/xlink"
      xlink:href="#suggestionShortcut"
      xlink:title="suggestionShortcut">
      <rect x="479" y="3" width="144" height="32"/>
      <rect x="477" y="1" width="144" height="32" class="nonterminal"/>
      <text class="nonterminal" x="487" y="21">suggestionShortcut</text>
   </a>
   <rect x="663" y="37" width="20" height="32" rx="10"/>
   <rect x="661"
         y="35"
         width="20"
         height="32"
         class="terminal"
         rx="10"/>
   <text class="terminal" x="671" y="55"/>
   <path class="line"
         d="m17 51 h2 m0 0 h10 m136 0 h10 m0 0 h10 m66 0 h10 m20 0 h10 m0 0 h76 m-106 0 h20 m86 0 h20 m-126 0 q10 0 10 10 m106 0 q0 -10 10 -10 m-116 10 v12 m106 0 v-12 m-106 12 q0 10 10 10 m86 0 q10 0 10 -10 m-96 10 h10 m66 0 h10 m40 -32 h10 m20 0 h10 m20 0 h10 m0 0 h154 m-184 0 l20 0 m-1 0 q-9 0 -9 -10 l0 -14 q0 -10 10 -10 m164 34 l20 0 m-20 0 q10 0 10 -10 l0 -14 q0 -10 -10 -10 m-164 0 h10 m144 0 h10 m20 34 h10 m20 0 h10 m-304 0 h20 m284 0 h20 m-324 0 q10 0 10 10 m304 0 q0 -10 10 -10 m-314 10 v14 m304 0 v-14 m-304 14 q0 10 10 10 m284 0 q10 0 10 -10 m-294 10 h10 m0 0 h274 m23 -34 h-3"/>
   <polygon points="721 51 729 47 729 55"/>
   <polygon points="721 51 713 47 713 55"/>
</svg>
