<?xml version="1.0" encoding="UTF-8"?>
<svg xmlns="http://www.w3.org/2000/svg" width="159" height="125">
   <defs>
      <style type="text/css">
    @namespace "http://www.w3.org/2000/svg";
    .line                 {fill: none; stroke: #003322; stroke-width: 1;}
    .bold-line            {stroke: #00140E; shape-rendering: crispEdges; stroke-width: 2;}
    .thin-line            {stroke: #001F14; shape-rendering: crispEdges}
    .filled               {fill: #003322; stroke: none;}
    text.terminal         {font-family: Verdana, Sans-serif;
                            font-size: 12px;
                            fill: #00140E;
                            font-weight: bold;
                          }
    text.nonterminal      {font-family: Verdana, Sans-serif;
                            font-size: 12px;
                            fill: #001A11;
                            font-weight: normal;
                          }
    text.regexp           {font-family: Verdana, Sans-serif;
                            font-size: 12px;
                            fill: #001F14;
                            font-weight: normal;
                          }
    rect, circle, polygon {fill: #003322; stroke: #003322;}
    rect.terminal         {fill: #4DFFC3; stroke: #003322; stroke-width: 1;}
    rect.nonterminal      {fill: #9EFFDF; stroke: #003322; stroke-width: 1;}
    rect.text             {fill: none; stroke: none;}
    polygon.regexp        {fill: #C7FFEC; stroke: #003322; stroke-width: 1;}
  </style>
   </defs>
   <polygon points="9 17 1 13 1 21"/>
   <polygon points="17 17 9 13 9 21"/>
   <a xmlns:xlink="http://www.w3.org/1999/xlink"
      xlink:href="#DIGIT"
      xlink:title="DIGIT">
      <rect x="51" y="3" width="56" height="32"/>
      <rect x="49" y="1" width="56" height="32" class="nonterminal"/>
      <text class="nonterminal" x="59" y="21">DIGIT</text>
   </a>
   <polygon points="51 63 58 47 102 47 109 63 102 79 58 79"/>
   <polygon points="49 61 56 45 100 45 107 61 100 77 56 77" class="regexp"/>
   <text class="regexp" x="64" y="65">[a-f]</text>
   <polygon points="51 107 58 91 104 91 111 107 104 123 58 123"/>
   <polygon points="49 105 56 89 102 89 109 105 102 121 56 121" class="regexp"/>
   <text class="regexp" x="64" y="109">[A-F]</text>
   <path class="line"
         d="m17 17 h2 m20 0 h10 m56 0 h10 m0 0 h4 m-100 0 h20 m80 0 h20 m-120 0 q10 0 10 10 m100 0 q0 -10 10 -10 m-110 10 v24 m100 0 v-24 m-100 24 q0 10 10 10 m80 0 q10 0 10 -10 m-90 10 h10 m58 0 h10 m0 0 h2 m-90 -10 v20 m100 0 v-20 m-100 20 v24 m100 0 v-24 m-100 24 q0 10 10 10 m80 0 q10 0 10 -10 m-90 10 h10 m60 0 h10 m23 -88 h-3"/>
   <polygon points="149 17 157 13 157 21"/>
   <polygon points="149 17 141 13 141 21"/>
</svg>
