<?xml version="1.0" encoding="UTF-8"?>
<svg xmlns="http://www.w3.org/2000/svg" width="247" height="81">
   <defs>
      <style type="text/css">
    @namespace "http://www.w3.org/2000/svg";
    .line                 {fill: none; stroke: #003322; stroke-width: 1;}
    .bold-line            {stroke: #00140E; shape-rendering: crispEdges; stroke-width: 2;}
    .thin-line            {stroke: #001F14; shape-rendering: crispEdges}
    .filled               {fill: #003322; stroke: none;}
    text.terminal         {font-family: Verdana, Sans-serif;
                            font-size: 12px;
                            fill: #00140E;
                            font-weight: bold;
                          }
    text.nonterminal      {font-family: Verdana, Sans-serif;
                            font-size: 12px;
                            fill: #001A11;
                            font-weight: normal;
                          }
    text.regexp           {font-family: Verdana, Sans-serif;
                            font-size: 12px;
                            fill: #001F14;
                            font-weight: normal;
                          }
    rect, circle, polygon {fill: #003322; stroke: #003322;}
    rect.terminal         {fill: #4DFFC3; stroke: #003322; stroke-width: 1;}
    rect.nonterminal      {fill: #9EFFDF; stroke: #003322; stroke-width: 1;}
    rect.text             {fill: none; stroke: none;}
    polygon.regexp        {fill: #C7FFEC; stroke: #003322; stroke-width: 1;}
  </style>
   </defs>
   <polygon points="9 17 1 13 1 21"/>
   <polygon points="17 17 9 13 9 21"/>
   <a xmlns:xlink="http://www.w3.org/1999/xlink"
      xlink:href="#UPPERCASE_LETTER"
      xlink:title="UPPERCASE_LETTER">
      <rect x="51" y="3" width="148" height="32"/>
      <rect x="49" y="1" width="148" height="32" class="nonterminal"/>
      <text class="nonterminal" x="59" y="21">UPPERCASE_LETTER</text>
   </a>
   <a xmlns:xlink="http://www.w3.org/1999/xlink"
      xlink:href="#DIGIT"
      xlink:title="DIGIT">
      <rect x="51" y="47" width="56" height="32"/>
      <rect x="49" y="45" width="56" height="32" class="nonterminal"/>
      <text class="nonterminal" x="59" y="65">DIGIT</text>
   </a>
   <path class="line"
         d="m17 17 h2 m20 0 h10 m148 0 h10 m-188 0 h20 m168 0 h20 m-208 0 q10 0 10 10 m188 0 q0 -10 10 -10 m-198 10 v24 m188 0 v-24 m-188 24 q0 10 10 10 m168 0 q10 0 10 -10 m-178 10 h10 m56 0 h10 m0 0 h92 m23 -44 h-3"/>
   <polygon points="237 17 245 13 245 21"/>
   <polygon points="237 17 229 13 229 21"/>
</svg>
