<?xml version="1.0" encoding="UTF-8"?>
<svg xmlns="http://www.w3.org/2000/svg" width="453" height="97">
   <defs>
      <style type="text/css">
    @namespace "http://www.w3.org/2000/svg";
    .line                 {fill: none; stroke: #003322; stroke-width: 1;}
    .bold-line            {stroke: #00140E; shape-rendering: crispEdges; stroke-width: 2;}
    .thin-line            {stroke: #001F14; shape-rendering: crispEdges}
    .filled               {fill: #003322; stroke: none;}
    text.terminal         {font-family: Verdana, Sans-serif;
                            font-size: 12px;
                            fill: #00140E;
                            font-weight: bold;
                          }
    text.nonterminal      {font-family: Verdana, Sans-serif;
                            font-size: 12px;
                            fill: #001A11;
                            font-weight: normal;
                          }
    text.regexp           {font-family: Verdana, Sans-serif;
                            font-size: 12px;
                            fill: #001F14;
                            font-weight: normal;
                          }
    rect, circle, polygon {fill: #003322; stroke: #003322;}
    rect.terminal         {fill: #4DFFC3; stroke: #003322; stroke-width: 1;}
    rect.nonterminal      {fill: #9EFFDF; stroke: #003322; stroke-width: 1;}
    rect.text             {fill: none; stroke: none;}
    polygon.regexp        {fill: #C7FFEC; stroke: #003322; stroke-width: 1;}
  </style>
   </defs>
   <polygon points="9 33 1 29 1 37"/>
   <polygon points="17 33 9 29 9 37"/>
   <rect x="31" y="19" width="84" height="32" rx="10"/>
   <rect x="29"
         y="17"
         width="84"
         height="32"
         class="terminal"
         rx="10"/>
   <text class="terminal" x="39" y="37">Messages</text>
   <rect x="135" y="19" width="20" height="32" rx="10"/>
   <rect x="133"
         y="17"
         width="20"
         height="32"
         class="terminal"
         rx="10"/>
   <text class="terminal" x="143" y="37"/>
   <a xmlns:xlink="http://www.w3.org/1999/xlink"
      xlink:href="#agentMessage"
      xlink:title="agentMessage">
      <rect x="215" y="19" width="112" height="32"/>
      <rect x="213" y="17" width="112" height="32" class="nonterminal"/>
      <text class="nonterminal" x="223" y="37">agentMessage</text>
   </a>
   <a xmlns:xlink="http://www.w3.org/1999/xlink"
      xlink:href="#messageShortcut"
      xlink:title="messageShortcut">
      <rect x="215" y="63" width="130" height="32"/>
      <rect x="213" y="61" width="130" height="32" class="nonterminal"/>
      <text class="nonterminal" x="223" y="81">messageShortcut</text>
   </a>
   <rect x="405" y="19" width="20" height="32" rx="10"/>
   <rect x="403"
         y="17"
         width="20"
         height="32"
         class="terminal"
         rx="10"/>
   <text class="terminal" x="413" y="37"/>
   <path class="line"
         d="m17 33 h2 m0 0 h10 m84 0 h10 m0 0 h10 m20 0 h10 m40 0 h10 m112 0 h10 m0 0 h18 m-170 0 h20 m150 0 h20 m-190 0 q10 0 10 10 m170 0 q0 -10 10 -10 m-180 10 v24 m170 0 v-24 m-170 24 q0 10 10 10 m150 0 q10 0 10 -10 m-160 10 h10 m130 0 h10 m-190 -44 l20 0 m-1 0 q-9 0 -9 -10 l0 -12 q0 -10 10 -10 m190 32 l20 0 m-20 0 q10 0 10 -10 l0 -12 q0 -10 -10 -10 m-190 0 h10 m0 0 h180 m20 32 h10 m20 0 h10 m3 0 h-3"/>
   <polygon points="443 33 451 29 451 37"/>
   <polygon points="443 33 435 29 435 37"/>
</svg>
