<?xml version="1.0" encoding="UTF-8"?>
<svg xmlns="http://www.w3.org/2000/svg" width="957" height="189">
   <defs>
      <style type="text/css">
    @namespace "http://www.w3.org/2000/svg";
    .line                 {fill: none; stroke: #003322; stroke-width: 1;}
    .bold-line            {stroke: #00140E; shape-rendering: crispEdges; stroke-width: 2;}
    .thin-line            {stroke: #001F14; shape-rendering: crispEdges}
    .filled               {fill: #003322; stroke: none;}
    text.terminal         {font-family: Verdana, Sans-serif;
                            font-size: 12px;
                            fill: #00140E;
                            font-weight: bold;
                          }
    text.nonterminal      {font-family: Verdana, Sans-serif;
                            font-size: 12px;
                            fill: #001A11;
                            font-weight: normal;
                          }
    text.regexp           {font-family: Verdana, Sans-serif;
                            font-size: 12px;
                            fill: #001F14;
                            font-weight: normal;
                          }
    rect, circle, polygon {fill: #003322; stroke: #003322;}
    rect.terminal         {fill: #4DFFC3; stroke: #003322; stroke-width: 1;}
    rect.nonterminal      {fill: #9EFFDF; stroke: #003322; stroke-width: 1;}
    rect.text             {fill: none; stroke: none;}
    polygon.regexp        {fill: #C7FFEC; stroke: #003322; stroke-width: 1;}
  </style>
   </defs>
   <polygon points="9 17 1 13 1 21"/>
   <polygon points="17 17 9 13 9 21"/>
   <rect x="31" y="3" width="72" height="32" rx="10"/>
   <rect x="29"
         y="1"
         width="72"
         height="32"
         class="terminal"
         rx="10"/>
   <text class="terminal" x="39" y="21">openUrl</text>
   <a xmlns:xlink="http://www.w3.org/1999/xlink"
      xlink:href="#enhancedSimpleValue"
      xlink:title="enhancedSimpleValue">
      <rect x="123" y="3" width="160" height="32"/>
      <rect x="121" y="1" width="160" height="32" class="nonterminal"/>
      <text class="nonterminal" x="131" y="21">enhancedSimpleValue</text>
   </a>
   <a xmlns:xlink="http://www.w3.org/1999/xlink"
      xlink:href="#typedValue"
      xlink:title="typedValue">
      <rect x="303" y="3" width="92" height="32"/>
      <rect x="301" y="1" width="92" height="32" class="nonterminal"/>
      <text class="nonterminal" x="311" y="21">typedValue</text>
   </a>
   <a xmlns:xlink="http://www.w3.org/1999/xlink"
      xlink:href="#enhancedSimpleValue"
      xlink:title="enhancedSimpleValue">
      <rect x="435" y="35" width="160" height="32"/>
      <rect x="433" y="33" width="160" height="32" class="nonterminal"/>
      <text class="nonterminal" x="443" y="53">enhancedSimpleValue</text>
   </a>
   <rect x="675" y="35" width="94" height="32" rx="10"/>
   <rect x="673"
         y="33"
         width="94"
         height="32"
         class="terminal"
         rx="10"/>
   <text class="terminal" x="683" y="53">:BROWSER</text>
   <rect x="675" y="79" width="94" height="32" rx="10"/>
   <rect x="673"
         y="77"
         width="94"
         height="32"
         class="terminal"
         rx="10"/>
   <text class="terminal" x="683" y="97">:WEBVIEW</text>
   <rect x="829" y="67" width="58" height="32" rx="10"/>
   <rect x="827"
         y="65"
         width="58"
         height="32"
         class="terminal"
         rx="10"/>
   <text class="terminal" x="837" y="85">:FULL</text>
   <rect x="829" y="111" width="60" height="32" rx="10"/>
   <rect x="827"
         y="109"
         width="60"
         height="32"
         class="terminal"
         rx="10"/>
   <text class="terminal" x="837" y="129">:HALF</text>
   <rect x="829" y="155" width="58" height="32" rx="10"/>
   <rect x="827"
         y="153"
         width="58"
         height="32"
         class="terminal"
         rx="10"/>
   <text class="terminal" x="837" y="173">:TALL</text>
   <path class="line"
         d="m17 17 h2 m0 0 h10 m72 0 h10 m0 0 h10 m160 0 h10 m0 0 h10 m92 0 h10 m20 0 h10 m0 0 h170 m-200 0 h20 m180 0 h20 m-220 0 q10 0 10 10 m200 0 q0 -10 10 -10 m-210 10 v12 m200 0 v-12 m-200 12 q0 10 10 10 m180 0 q10 0 10 -10 m-190 10 h10 m160 0 h10 m40 -32 h10 m0 0 h264 m-294 0 h20 m274 0 h20 m-314 0 q10 0 10 10 m294 0 q0 -10 10 -10 m-304 10 v12 m294 0 v-12 m-294 12 q0 10 10 10 m274 0 q10 0 10 -10 m-264 10 h10 m94 0 h10 m-134 0 h20 m114 0 h20 m-154 0 q10 0 10 10 m134 0 q0 -10 10 -10 m-144 10 v24 m134 0 v-24 m-134 24 q0 10 10 10 m114 0 q10 0 10 -10 m-124 10 h10 m94 0 h10 m40 -44 h10 m0 0 h70 m-100 0 h20 m80 0 h20 m-120 0 q10 0 10 10 m100 0 q0 -10 10 -10 m-110 10 v12 m100 0 v-12 m-100 12 q0 10 10 10 m80 0 q10 0 10 -10 m-90 10 h10 m58 0 h10 m0 0 h2 m-90 -10 v20 m100 0 v-20 m-100 20 v24 m100 0 v-24 m-100 24 q0 10 10 10 m80 0 q10 0 10 -10 m-90 10 h10 m60 0 h10 m-90 -10 v20 m100 0 v-20 m-100 20 v24 m100 0 v-24 m-100 24 q0 10 10 10 m80 0 q10 0 10 -10 m-90 10 h10 m58 0 h10 m0 0 h2 m43 -152 h-3"/>
   <polygon points="947 17 955 13 955 21"/>
   <polygon points="947 17 939 13 939 21"/>
</svg>
