<?xml version="1.0" encoding="UTF-8"?>
<svg xmlns="http://www.w3.org/2000/svg" width="419" height="69">
   <defs>
      <style type="text/css">
    @namespace "http://www.w3.org/2000/svg";
    .line                 {fill: none; stroke: #003322; stroke-width: 1;}
    .bold-line            {stroke: #00140E; shape-rendering: crispEdges; stroke-width: 2;}
    .thin-line            {stroke: #001F14; shape-rendering: crispEdges}
    .filled               {fill: #003322; stroke: none;}
    text.terminal         {font-family: Verdana, Sans-serif;
                            font-size: 12px;
                            fill: #00140E;
                            font-weight: bold;
                          }
    text.nonterminal      {font-family: Verdana, Sans-serif;
                            font-size: 12px;
                            fill: #001A11;
                            font-weight: normal;
                          }
    text.regexp           {font-family: Verdana, Sans-serif;
                            font-size: 12px;
                            fill: #001F14;
                            font-weight: normal;
                          }
    rect, circle, polygon {fill: #003322; stroke: #003322;}
    rect.terminal         {fill: #4DFFC3; stroke: #003322; stroke-width: 1;}
    rect.nonterminal      {fill: #9EFFDF; stroke: #003322; stroke-width: 1;}
    rect.text             {fill: none; stroke: none;}
    polygon.regexp        {fill: #C7FFEC; stroke: #003322; stroke-width: 1;}
  </style>
   </defs>
   <polygon points="9 17 1 13 1 21"/>
   <polygon points="17 17 9 13 9 21"/>
   <rect x="31" y="3" width="54" height="32" rx="10"/>
   <rect x="29"
         y="1"
         width="54"
         height="32"
         class="terminal"
         rx="10"/>
   <text class="terminal" x="39" y="21">reply</text>
   <a xmlns:xlink="http://www.w3.org/1999/xlink"
      xlink:href="#enhancedSimpleValue"
      xlink:title="enhancedSimpleValue">
      <rect x="105" y="3" width="160" height="32"/>
      <rect x="103" y="1" width="160" height="32" class="nonterminal"/>
      <text class="nonterminal" x="113" y="21">enhancedSimpleValue</text>
   </a>
   <a xmlns:xlink="http://www.w3.org/1999/xlink"
      xlink:href="#STRING"
      xlink:title="STRING">
      <rect x="305" y="35" width="66" height="32"/>
      <rect x="303" y="33" width="66" height="32" class="nonterminal"/>
      <text class="nonterminal" x="313" y="53">STRING</text>
   </a>
   <path class="line"
         d="m17 17 h2 m0 0 h10 m54 0 h10 m0 0 h10 m160 0 h10 m20 0 h10 m0 0 h76 m-106 0 h20 m86 0 h20 m-126 0 q10 0 10 10 m106 0 q0 -10 10 -10 m-116 10 v12 m106 0 v-12 m-106 12 q0 10 10 10 m86 0 q10 0 10 -10 m-96 10 h10 m66 0 h10 m23 -32 h-3"/>
   <polygon points="409 17 417 13 417 21"/>
   <polygon points="409 17 401 13 401 21"/>
</svg>
