<?xml version="1.0" encoding="UTF-8"?>
<svg xmlns="http://www.w3.org/2000/svg" width="977" height="119">
   <defs>
      <style type="text/css">
    @namespace "http://www.w3.org/2000/svg";
    .line                 {fill: none; stroke: #003322; stroke-width: 1;}
    .bold-line            {stroke: #00140E; shape-rendering: crispEdges; stroke-width: 2;}
    .thin-line            {stroke: #001F14; shape-rendering: crispEdges}
    .filled               {fill: #003322; stroke: none;}
    text.terminal         {font-family: Verdana, Sans-serif;
                            font-size: 12px;
                            fill: #00140E;
                            font-weight: bold;
                          }
    text.nonterminal      {font-family: Verdana, Sans-serif;
                            font-size: 12px;
                            fill: #001A11;
                            font-weight: normal;
                          }
    text.regexp           {font-family: Verdana, Sans-serif;
                            font-size: 12px;
                            fill: #001F14;
                            font-weight: normal;
                          }
    rect, circle, polygon {fill: #003322; stroke: #003322;}
    rect.terminal         {fill: #4DFFC3; stroke: #003322; stroke-width: 1;}
    rect.nonterminal      {fill: #9EFFDF; stroke: #003322; stroke-width: 1;}
    rect.text             {fill: none; stroke: none;}
    polygon.regexp        {fill: #C7FFEC; stroke: #003322; stroke-width: 1;}
  </style>
   </defs>
   <polygon points="9 51 1 47 1 55"/>
   <polygon points="17 51 9 47 9 55"/>
   <rect x="31" y="37" width="76" height="32" rx="10"/>
   <rect x="29"
         y="35"
         width="76"
         height="32"
         class="terminal"
         rx="10"/>
   <text class="terminal" x="39" y="55">richCard</text>
   <a xmlns:xlink="http://www.w3.org/1999/xlink"
      xlink:href="#enhancedSimpleValue"
      xlink:title="enhancedSimpleValue">
      <rect x="127" y="37" width="160" height="32"/>
      <rect x="125" y="35" width="160" height="32" class="nonterminal"/>
      <text class="nonterminal" x="135" y="55">enhancedSimpleValue</text>
   </a>
   <a xmlns:xlink="http://www.w3.org/1999/xlink"
      xlink:href="#enhancedSimpleValue"
      xlink:title="enhancedSimpleValue">
      <rect x="327" y="69" width="160" height="32"/>
      <rect x="325" y="67" width="160" height="32" class="nonterminal"/>
      <text class="nonterminal" x="335" y="87">enhancedSimpleValue</text>
   </a>
   <rect x="547" y="37" width="20" height="32" rx="10"/>
   <rect x="545"
         y="35"
         width="20"
         height="32"
         class="terminal"
         rx="10"/>
   <text class="terminal" x="555" y="55"/>
   <a xmlns:xlink="http://www.w3.org/1999/xlink"
      xlink:href="#media"
      xlink:title="media">
      <rect x="607" y="69" width="58" height="32"/>
      <rect x="605" y="67" width="58" height="32" class="nonterminal"/>
      <text class="nonterminal" x="615" y="87">media</text>
   </a>
   <a xmlns:xlink="http://www.w3.org/1999/xlink"
      xlink:href="#suggestionShortcut"
      xlink:title="suggestionShortcut">
      <rect x="725" y="3" width="144" height="32"/>
      <rect x="723" y="1" width="144" height="32" class="nonterminal"/>
      <text class="nonterminal" x="733" y="21">suggestionShortcut</text>
   </a>
   <rect x="909" y="37" width="20" height="32" rx="10"/>
   <rect x="907"
         y="35"
         width="20"
         height="32"
         class="terminal"
         rx="10"/>
   <text class="terminal" x="917" y="55"/>
   <path class="line"
         d="m17 51 h2 m0 0 h10 m76 0 h10 m0 0 h10 m160 0 h10 m20 0 h10 m0 0 h170 m-200 0 h20 m180 0 h20 m-220 0 q10 0 10 10 m200 0 q0 -10 10 -10 m-210 10 v12 m200 0 v-12 m-200 12 q0 10 10 10 m180 0 q10 0 10 -10 m-190 10 h10 m160 0 h10 m40 -32 h10 m20 0 h10 m20 0 h10 m0 0 h68 m-98 0 h20 m78 0 h20 m-118 0 q10 0 10 10 m98 0 q0 -10 10 -10 m-108 10 v12 m98 0 v-12 m-98 12 q0 10 10 10 m78 0 q10 0 10 -10 m-88 10 h10 m58 0 h10 m40 -32 h10 m0 0 h154 m-184 0 l20 0 m-1 0 q-9 0 -9 -10 l0 -14 q0 -10 10 -10 m164 34 l20 0 m-20 0 q10 0 10 -10 l0 -14 q0 -10 -10 -10 m-164 0 h10 m144 0 h10 m20 34 h10 m20 0 h10 m-422 0 h20 m402 0 h20 m-442 0 q10 0 10 10 m422 0 q0 -10 10 -10 m-432 10 v46 m422 0 v-46 m-422 46 q0 10 10 10 m402 0 q10 0 10 -10 m-412 10 h10 m0 0 h392 m23 -66 h-3"/>
   <polygon points="967 51 975 47 975 55"/>
   <polygon points="967 51 959 47 959 55"/>
</svg>
