<?xml version="1.0" encoding="UTF-8"?>
<svg xmlns="http://www.w3.org/2000/svg" width="273" height="257">
   <defs>
      <style type="text/css">
    @namespace "http://www.w3.org/2000/svg";
    .line                 {fill: none; stroke: #003322; stroke-width: 1;}
    .bold-line            {stroke: #00140E; shape-rendering: crispEdges; stroke-width: 2;}
    .thin-line            {stroke: #001F14; shape-rendering: crispEdges}
    .filled               {fill: #003322; stroke: none;}
    text.terminal         {font-family: Verdana, Sans-serif;
                            font-size: 12px;
                            fill: #00140E;
                            font-weight: bold;
                          }
    text.nonterminal      {font-family: Verdana, Sans-serif;
                            font-size: 12px;
                            fill: #001A11;
                            font-weight: normal;
                          }
    text.regexp           {font-family: Verdana, Sans-serif;
                            font-size: 12px;
                            fill: #001F14;
                            font-weight: normal;
                          }
    rect, circle, polygon {fill: #003322; stroke: #003322;}
    rect.terminal         {fill: #4DFFC3; stroke: #003322; stroke-width: 1;}
    rect.nonterminal      {fill: #9EFFDF; stroke: #003322; stroke-width: 1;}
    rect.text             {fill: none; stroke: none;}
    polygon.regexp        {fill: #C7FFEC; stroke: #003322; stroke-width: 1;}
  </style>
   </defs>
   <polygon points="9 17 1 13 1 21"/>
   <polygon points="17 17 9 13 9 21"/>
   <a xmlns:xlink="http://www.w3.org/1999/xlink"
      xlink:href="#STRING"
      xlink:title="STRING">
      <rect x="51" y="3" width="66" height="32"/>
      <rect x="49" y="1" width="66" height="32" class="nonterminal"/>
      <text class="nonterminal" x="59" y="21">STRING</text>
   </a>
   <a xmlns:xlink="http://www.w3.org/1999/xlink"
      xlink:href="#NUMBER"
      xlink:title="NUMBER">
      <rect x="51" y="47" width="72" height="32"/>
      <rect x="49" y="45" width="72" height="32" class="nonterminal"/>
      <text class="nonterminal" x="59" y="65">NUMBER</text>
   </a>
   <a xmlns:xlink="http://www.w3.org/1999/xlink"
      xlink:href="#booleanLiteral"
      xlink:title="booleanLiteral">
      <rect x="51" y="91" width="110" height="32"/>
      <rect x="49" y="89" width="110" height="32" class="nonterminal"/>
      <text class="nonterminal" x="59" y="109">booleanLiteral</text>
   </a>
   <a xmlns:xlink="http://www.w3.org/1999/xlink"
      xlink:href="#ATOM"
      xlink:title="ATOM">
      <rect x="51" y="135" width="54" height="32"/>
      <rect x="49" y="133" width="54" height="32" class="nonterminal"/>
      <text class="nonterminal" x="59" y="153">ATOM</text>
   </a>
   <a xmlns:xlink="http://www.w3.org/1999/xlink"
      xlink:href="#TIME_LITERAL"
      xlink:title="TIME_LITERAL">
      <rect x="51" y="179" width="108" height="32"/>
      <rect x="49" y="177" width="108" height="32" class="nonterminal"/>
      <text class="nonterminal" x="59" y="197">TIME_LITERAL</text>
   </a>
   <a xmlns:xlink="http://www.w3.org/1999/xlink"
      xlink:href="#ISO_DURATION_LITERAL"
      xlink:title="ISO_DURATION_LITERAL">
      <rect x="51" y="223" width="174" height="32"/>
      <rect x="49" y="221" width="174" height="32" class="nonterminal"/>
      <text class="nonterminal" x="59" y="241">ISO_DURATION_LITERAL</text>
   </a>
   <path class="line"
         d="m17 17 h2 m20 0 h10 m66 0 h10 m0 0 h108 m-214 0 h20 m194 0 h20 m-234 0 q10 0 10 10 m214 0 q0 -10 10 -10 m-224 10 v24 m214 0 v-24 m-214 24 q0 10 10 10 m194 0 q10 0 10 -10 m-204 10 h10 m72 0 h10 m0 0 h102 m-204 -10 v20 m214 0 v-20 m-214 20 v24 m214 0 v-24 m-214 24 q0 10 10 10 m194 0 q10 0 10 -10 m-204 10 h10 m110 0 h10 m0 0 h64 m-204 -10 v20 m214 0 v-20 m-214 20 v24 m214 0 v-24 m-214 24 q0 10 10 10 m194 0 q10 0 10 -10 m-204 10 h10 m54 0 h10 m0 0 h120 m-204 -10 v20 m214 0 v-20 m-214 20 v24 m214 0 v-24 m-214 24 q0 10 10 10 m194 0 q10 0 10 -10 m-204 10 h10 m108 0 h10 m0 0 h66 m-204 -10 v20 m214 0 v-20 m-214 20 v24 m214 0 v-24 m-214 24 q0 10 10 10 m194 0 q10 0 10 -10 m-204 10 h10 m174 0 h10 m23 -220 h-3"/>
   <polygon points="263 17 271 13 271 21"/>
   <polygon points="263 17 255 13 255 21"/>
</svg>
