<?xml version="1.0" encoding="UTF-8"?>
<svg xmlns="http://www.w3.org/2000/svg" width="769" height="71">
   <defs>
      <style type="text/css">
    @namespace "http://www.w3.org/2000/svg";
    .line                 {fill: none; stroke: #003322; stroke-width: 1;}
    .bold-line            {stroke: #00140E; shape-rendering: crispEdges; stroke-width: 2;}
    .thin-line            {stroke: #001F14; shape-rendering: crispEdges}
    .filled               {fill: #003322; stroke: none;}
    text.terminal         {font-family: Verdana, Sans-serif;
                            font-size: 12px;
                            fill: #00140E;
                            font-weight: bold;
                          }
    text.nonterminal      {font-family: Verdana, Sans-serif;
                            font-size: 12px;
                            fill: #001A11;
                            font-weight: normal;
                          }
    text.regexp           {font-family: Verdana, Sans-serif;
                            font-size: 12px;
                            fill: #001F14;
                            font-weight: normal;
                          }
    rect, circle, polygon {fill: #003322; stroke: #003322;}
    rect.terminal         {fill: #4DFFC3; stroke: #003322; stroke-width: 1;}
    rect.nonterminal      {fill: #9EFFDF; stroke: #003322; stroke-width: 1;}
    rect.text             {fill: none; stroke: none;}
    polygon.regexp        {fill: #C7FFEC; stroke: #003322; stroke-width: 1;}
  </style>
   </defs>
   <polygon points="9 51 1 47 1 55"/>
   <polygon points="17 51 9 47 9 55"/>
   <a xmlns:xlink="http://www.w3.org/1999/xlink"
      xlink:href="#SINGLE_LINE_EXPRESSION_MARKER"
      xlink:title="SINGLE_LINE_EXPRESSION_MARKER">
      <rect x="31" y="37" width="250" height="32"/>
      <rect x="29" y="35" width="250" height="32" class="nonterminal"/>
      <text class="nonterminal" x="39" y="55">SINGLE_LINE_EXPRESSION_MARKER</text>
   </a>
   <a xmlns:xlink="http://www.w3.org/1999/xlink"
      xlink:href="#WS"
      xlink:title="WS">
      <rect x="321" y="3" width="40" height="32"/>
      <rect x="319" y="1" width="40" height="32" class="nonterminal"/>
      <text class="nonterminal" x="329" y="21">WS</text>
   </a>
   <a xmlns:xlink="http://www.w3.org/1999/xlink"
      xlink:href="#SINGLE_LINE_EXPRESSION_CONTENT_CHAR"
      xlink:title="SINGLE_LINE_EXPRESSION_CONTENT_CHAR">
      <rect x="421" y="3" width="300" height="32"/>
      <rect x="419" y="1" width="300" height="32" class="nonterminal"/>
      <text class="nonterminal" x="429" y="21">SINGLE_LINE_EXPRESSION_CONTENT_CHAR</text>
   </a>
   <path class="line"
         d="m17 51 h2 m0 0 h10 m250 0 h10 m20 0 h10 m0 0 h50 m-80 0 l20 0 m-1 0 q-9 0 -9 -10 l0 -14 q0 -10 10 -10 m60 34 l20 0 m-20 0 q10 0 10 -10 l0 -14 q0 -10 -10 -10 m-60 0 h10 m40 0 h10 m40 34 h10 m0 0 h310 m-340 0 l20 0 m-1 0 q-9 0 -9 -10 l0 -14 q0 -10 10 -10 m320 34 l20 0 m-20 0 q10 0 10 -10 l0 -14 q0 -10 -10 -10 m-320 0 h10 m300 0 h10 m23 34 h-3"/>
   <polygon points="759 51 767 47 767 55"/>
   <polygon points="759 51 751 47 751 55"/>
</svg>
