<?xml version="1.0" encoding="UTF-8"?>
<svg xmlns="http://www.w3.org/2000/svg" width="331" height="37">
   <defs>
      <style type="text/css">
    @namespace "http://www.w3.org/2000/svg";
    .line                 {fill: none; stroke: #003322; stroke-width: 1;}
    .bold-line            {stroke: #00140E; shape-rendering: crispEdges; stroke-width: 2;}
    .thin-line            {stroke: #001F14; shape-rendering: crispEdges}
    .filled               {fill: #003322; stroke: none;}
    text.terminal         {font-family: Verdana, Sans-serif;
                            font-size: 12px;
                            fill: #00140E;
                            font-weight: bold;
                          }
    text.nonterminal      {font-family: Verdana, Sans-serif;
                            font-size: 12px;
                            fill: #001A11;
                            font-weight: normal;
                          }
    text.regexp           {font-family: Verdana, Sans-serif;
                            font-size: 12px;
                            fill: #001F14;
                            font-weight: normal;
                          }
    rect, circle, polygon {fill: #003322; stroke: #003322;}
    rect.terminal         {fill: #4DFFC3; stroke: #003322; stroke-width: 1;}
    rect.nonterminal      {fill: #9EFFDF; stroke: #003322; stroke-width: 1;}
    rect.text             {fill: none; stroke: none;}
    polygon.regexp        {fill: #C7FFEC; stroke: #003322; stroke-width: 1;}
  </style>
   </defs>
   <polygon points="9 17 1 13 1 21"/>
   <polygon points="17 17 9 13 9 21"/>
   <rect x="31" y="3" width="28" height="32" rx="10"/>
   <rect x="29"
         y="1"
         width="28"
         height="32"
         class="terminal"
         rx="10"/>
   <text class="terminal" x="39" y="21">$</text>
   <a xmlns:xlink="http://www.w3.org/1999/xlink"
      xlink:href="#EXPRESSION_LANG_TAG"
      xlink:title="EXPRESSION_LANG_TAG">
      <rect x="79" y="3" width="174" height="32"/>
      <rect x="77" y="1" width="174" height="32" class="nonterminal"/>
      <text class="nonterminal" x="87" y="21">EXPRESSION_LANG_TAG</text>
   </a>
   <rect x="273" y="3" width="30" height="32" rx="10"/>
   <rect x="271"
         y="1"
         width="30"
         height="32"
         class="terminal"
         rx="10"/>
   <text class="terminal" x="281" y="21">&gt;</text>
   <path class="line"
         d="m17 17 h2 m0 0 h10 m28 0 h10 m0 0 h10 m174 0 h10 m0 0 h10 m30 0 h10 m3 0 h-3"/>
   <polygon points="321 17 329 13 329 21"/>
   <polygon points="321 17 313 13 313 21"/>
</svg>
