<?xml version="1.0" encoding="UTF-8"?>
<svg xmlns="http://www.w3.org/2000/svg" width="901" height="135">
   <defs>
      <style type="text/css">
    @namespace "http://www.w3.org/2000/svg";
    .line                 {fill: none; stroke: #003322; stroke-width: 1;}
    .bold-line            {stroke: #00140E; shape-rendering: crispEdges; stroke-width: 2;}
    .thin-line            {stroke: #001F14; shape-rendering: crispEdges}
    .filled               {fill: #003322; stroke: none;}
    text.terminal         {font-family: Verdana, Sans-serif;
                            font-size: 12px;
                            fill: #00140E;
                            font-weight: bold;
                          }
    text.nonterminal      {font-family: Verdana, Sans-serif;
                            font-size: 12px;
                            fill: #001A11;
                            font-weight: normal;
                          }
    text.regexp           {font-family: Verdana, Sans-serif;
                            font-size: 12px;
                            fill: #001F14;
                            font-weight: normal;
                          }
    rect, circle, polygon {fill: #003322; stroke: #003322;}
    rect.terminal         {fill: #4DFFC3; stroke: #003322; stroke-width: 1;}
    rect.nonterminal      {fill: #9EFFDF; stroke: #003322; stroke-width: 1;}
    rect.text             {fill: none; stroke: none;}
    polygon.regexp        {fill: #C7FFEC; stroke: #003322; stroke-width: 1;}
  </style>
   </defs>
   <polygon points="9 17 1 13 1 21"/>
   <polygon points="17 17 9 13 9 21"/>
   <rect x="31" y="3" width="126" height="32" rx="10"/>
   <rect x="29"
         y="1"
         width="126"
         height="32"
         class="terminal"
         rx="10"/>
   <text class="terminal" x="39" y="21">standaloneCard</text>
   <rect x="177" y="3" width="20" height="32" rx="10"/>
   <rect x="175"
         y="1"
         width="20"
         height="32"
         class="terminal"
         rx="10"/>
   <text class="terminal" x="185" y="21"/>
   <rect x="237" y="35" width="126" height="32" rx="10"/>
   <rect x="235"
         y="33"
         width="126"
         height="32"
         class="terminal"
         rx="10"/>
   <text class="terminal" x="245" y="53">cardOrientation</text>
   <rect x="383" y="35" width="24" height="32" rx="10"/>
   <rect x="381"
         y="33"
         width="24"
         height="32"
         class="terminal"
         rx="10"/>
   <text class="terminal" x="391" y="53">:</text>
   <a xmlns:xlink="http://www.w3.org/1999/xlink"
      xlink:href="#ATOM"
      xlink:title="ATOM">
      <rect x="427" y="35" width="54" height="32"/>
      <rect x="425" y="33" width="54" height="32" class="nonterminal"/>
      <text class="nonterminal" x="435" y="53">ATOM</text>
   </a>
   <rect x="541" y="35" width="200" height="32" rx="10"/>
   <rect x="539"
         y="33"
         width="200"
         height="32"
         class="terminal"
         rx="10"/>
   <text class="terminal" x="549" y="53">thumbnailImageAlignment</text>
   <rect x="761" y="35" width="24" height="32" rx="10"/>
   <rect x="759"
         y="33"
         width="24"
         height="32"
         class="terminal"
         rx="10"/>
   <text class="terminal" x="769" y="53">:</text>
   <a xmlns:xlink="http://www.w3.org/1999/xlink"
      xlink:href="#ATOM"
      xlink:title="ATOM">
      <rect x="805" y="35" width="54" height="32"/>
      <rect x="803" y="33" width="54" height="32" class="nonterminal"/>
      <text class="nonterminal" x="813" y="53">ATOM</text>
   </a>
   <a xmlns:xlink="http://www.w3.org/1999/xlink"
      xlink:href="#cardContent"
      xlink:title="cardContent">
      <rect x="735" y="101" width="98" height="32"/>
      <rect x="733" y="99" width="98" height="32" class="nonterminal"/>
      <text class="nonterminal" x="743" y="119">cardContent</text>
   </a>
   <rect x="853" y="101" width="20" height="32" rx="10"/>
   <rect x="851"
         y="99"
         width="20"
         height="32"
         class="terminal"
         rx="10"/>
   <text class="terminal" x="861" y="119"/>
   <path class="line"
         d="m17 17 h2 m0 0 h10 m126 0 h10 m0 0 h10 m20 0 h10 m20 0 h10 m0 0 h254 m-284 0 h20 m264 0 h20 m-304 0 q10 0 10 10 m284 0 q0 -10 10 -10 m-294 10 v12 m284 0 v-12 m-284 12 q0 10 10 10 m264 0 q10 0 10 -10 m-274 10 h10 m126 0 h10 m0 0 h10 m24 0 h10 m0 0 h10 m54 0 h10 m40 -32 h10 m0 0 h328 m-358 0 h20 m338 0 h20 m-378 0 q10 0 10 10 m358 0 q0 -10 10 -10 m-368 10 v12 m358 0 v-12 m-358 12 q0 10 10 10 m338 0 q10 0 10 -10 m-348 10 h10 m200 0 h10 m0 0 h10 m24 0 h10 m0 0 h10 m54 0 h10 m22 -32 l2 0 m2 0 l2 0 m2 0 l2 0 m-188 98 l2 0 m2 0 l2 0 m2 0 l2 0 m2 0 h10 m98 0 h10 m0 0 h10 m20 0 h10 m3 0 h-3"/>
   <polygon points="891 115 899 111 899 119"/>
   <polygon points="891 115 883 111 883 119"/>
</svg>
