<?xml version="1.0" encoding="UTF-8"?>
<svg xmlns="http://www.w3.org/2000/svg" width="519" height="37">
   <defs>
      <style type="text/css">
    @namespace "http://www.w3.org/2000/svg";
    .line                 {fill: none; stroke: #003322; stroke-width: 1;}
    .bold-line            {stroke: #00140E; shape-rendering: crispEdges; stroke-width: 2;}
    .thin-line            {stroke: #001F14; shape-rendering: crispEdges}
    .filled               {fill: #003322; stroke: none;}
    text.terminal         {font-family: Verdana, Sans-serif;
                            font-size: 12px;
                            fill: #00140E;
                            font-weight: bold;
                          }
    text.nonterminal      {font-family: Verdana, Sans-serif;
                            font-size: 12px;
                            fill: #001A11;
                            font-weight: normal;
                          }
    text.regexp           {font-family: Verdana, Sans-serif;
                            font-size: 12px;
                            fill: #001F14;
                            font-weight: normal;
                          }
    rect, circle, polygon {fill: #003322; stroke: #003322;}
    rect.terminal         {fill: #4DFFC3; stroke: #003322; stroke-width: 1;}
    rect.nonterminal      {fill: #9EFFDF; stroke: #003322; stroke-width: 1;}
    rect.text             {fill: none; stroke: none;}
    polygon.regexp        {fill: #C7FFEC; stroke: #003322; stroke-width: 1;}
  </style>
   </defs>
   <polygon points="9 17 1 13 1 21"/>
   <polygon points="17 17 9 13 9 21"/>
   <rect x="31" y="3" width="28" height="32" rx="10"/>
   <rect x="29"
         y="1"
         width="28"
         height="32"
         class="terminal"
         rx="10"/>
   <text class="terminal" x="39" y="21">u</text>
   <a xmlns:xlink="http://www.w3.org/1999/xlink"
      xlink:href="#HEX_DIGIT"
      xlink:title="HEX_DIGIT">
      <rect x="79" y="3" width="88" height="32"/>
      <rect x="77" y="1" width="88" height="32" class="nonterminal"/>
      <text class="nonterminal" x="87" y="21">HEX_DIGIT</text>
   </a>
   <a xmlns:xlink="http://www.w3.org/1999/xlink"
      xlink:href="#HEX_DIGIT"
      xlink:title="HEX_DIGIT">
      <rect x="187" y="3" width="88" height="32"/>
      <rect x="185" y="1" width="88" height="32" class="nonterminal"/>
      <text class="nonterminal" x="195" y="21">HEX_DIGIT</text>
   </a>
   <a xmlns:xlink="http://www.w3.org/1999/xlink"
      xlink:href="#HEX_DIGIT"
      xlink:title="HEX_DIGIT">
      <rect x="295" y="3" width="88" height="32"/>
      <rect x="293" y="1" width="88" height="32" class="nonterminal"/>
      <text class="nonterminal" x="303" y="21">HEX_DIGIT</text>
   </a>
   <a xmlns:xlink="http://www.w3.org/1999/xlink"
      xlink:href="#HEX_DIGIT"
      xlink:title="HEX_DIGIT">
      <rect x="403" y="3" width="88" height="32"/>
      <rect x="401" y="1" width="88" height="32" class="nonterminal"/>
      <text class="nonterminal" x="411" y="21">HEX_DIGIT</text>
   </a>
   <path class="line"
         d="m17 17 h2 m0 0 h10 m28 0 h10 m0 0 h10 m88 0 h10 m0 0 h10 m88 0 h10 m0 0 h10 m88 0 h10 m0 0 h10 m88 0 h10 m3 0 h-3"/>
   <polygon points="509 17 517 13 517 21"/>
   <polygon points="509 17 501 13 501 21"/>
</svg>
