<?xml version="1.0" encoding="UTF-8"?>
<svg xmlns="http://www.w3.org/2000/svg" width="343" height="81">
   <defs>
      <style type="text/css">
    @namespace "http://www.w3.org/2000/svg";
    .line                 {fill: none; stroke: #003322; stroke-width: 1;}
    .bold-line            {stroke: #00140E; shape-rendering: crispEdges; stroke-width: 2;}
    .thin-line            {stroke: #001F14; shape-rendering: crispEdges}
    .filled               {fill: #003322; stroke: none;}
    text.terminal         {font-family: Verdana, Sans-serif;
                            font-size: 12px;
                            fill: #00140E;
                            font-weight: bold;
                          }
    text.nonterminal      {font-family: Verdana, Sans-serif;
                            font-size: 12px;
                            fill: #001A11;
                            font-weight: normal;
                          }
    text.regexp           {font-family: Verdana, Sans-serif;
                            font-size: 12px;
                            fill: #001F14;
                            font-weight: normal;
                          }
    rect, circle, polygon {fill: #003322; stroke: #003322;}
    rect.terminal         {fill: #4DFFC3; stroke: #003322; stroke-width: 1;}
    rect.nonterminal      {fill: #9EFFDF; stroke: #003322; stroke-width: 1;}
    rect.text             {fill: none; stroke: none;}
    polygon.regexp        {fill: #C7FFEC; stroke: #003322; stroke-width: 1;}
  </style>
   </defs>
   <polygon points="9 17 1 13 1 21"/>
   <polygon points="17 17 9 13 9 21"/>
   <rect x="31" y="3" width="36" height="32" rx="10"/>
   <rect x="29"
         y="1"
         width="36"
         height="32"
         class="terminal"
         rx="10"/>
   <text class="terminal" x="39" y="21">\\</text>
   <a xmlns:xlink="http://www.w3.org/1999/xlink"
      xlink:href="#STRING_COMMON_ESCAPE"
      xlink:title="STRING_COMMON_ESCAPE">
      <rect x="107" y="3" width="188" height="32"/>
      <rect x="105" y="1" width="188" height="32" class="nonterminal"/>
      <text class="nonterminal" x="115" y="21">STRING_COMMON_ESCAPE</text>
   </a>
   <a xmlns:xlink="http://www.w3.org/1999/xlink"
      xlink:href="#STRING_HEX_ESCAPE"
      xlink:title="STRING_HEX_ESCAPE">
      <rect x="107" y="47" width="156" height="32"/>
      <rect x="105" y="45" width="156" height="32" class="nonterminal"/>
      <text class="nonterminal" x="115" y="65">STRING_HEX_ESCAPE</text>
   </a>
   <path class="line"
         d="m17 17 h2 m0 0 h10 m36 0 h10 m20 0 h10 m188 0 h10 m-228 0 h20 m208 0 h20 m-248 0 q10 0 10 10 m228 0 q0 -10 10 -10 m-238 10 v24 m228 0 v-24 m-228 24 q0 10 10 10 m208 0 q10 0 10 -10 m-218 10 h10 m156 0 h10 m0 0 h32 m23 -44 h-3"/>
   <polygon points="333 17 341 13 341 21"/>
   <polygon points="333 17 325 13 325 21"/>
</svg>
