<?xml version="1.0" encoding="UTF-8"?>
<svg xmlns="http://www.w3.org/2000/svg" width="573" height="257">
   <defs>
      <style type="text/css">
    @namespace "http://www.w3.org/2000/svg";
    .line                 {fill: none; stroke: #003322; stroke-width: 1;}
    .bold-line            {stroke: #00140E; shape-rendering: crispEdges; stroke-width: 2;}
    .thin-line            {stroke: #001F14; shape-rendering: crispEdges}
    .filled               {fill: #003322; stroke: none;}
    text.terminal         {font-family: Verdana, Sans-serif;
                            font-size: 12px;
                            fill: #00140E;
                            font-weight: bold;
                          }
    text.nonterminal      {font-family: Verdana, Sans-serif;
                            font-size: 12px;
                            fill: #001A11;
                            font-weight: normal;
                          }
    text.regexp           {font-family: Verdana, Sans-serif;
                            font-size: 12px;
                            fill: #001F14;
                            font-weight: normal;
                          }
    rect, circle, polygon {fill: #003322; stroke: #003322;}
    rect.terminal         {fill: #4DFFC3; stroke: #003322; stroke-width: 1;}
    rect.nonterminal      {fill: #9EFFDF; stroke: #003322; stroke-width: 1;}
    rect.text             {fill: none; stroke: none;}
    polygon.regexp        {fill: #C7FFEC; stroke: #003322; stroke-width: 1;}
  </style>
   </defs>
   <polygon points="9 17 1 13 1 21"/>
   <polygon points="17 17 9 13 9 21"/>
   <a xmlns:xlink="http://www.w3.org/1999/xlink"
      xlink:href="#inlineParameterList"
      xlink:title="inlineParameterList">
      <rect x="51" y="35" width="142" height="32"/>
      <rect x="49" y="33" width="142" height="32" class="nonterminal"/>
      <text class="nonterminal" x="59" y="53">inlineParameterList</text>
   </a>
   <rect x="233" y="3" width="20" height="32" rx="10"/>
   <rect x="231"
         y="1"
         width="20"
         height="32"
         class="terminal"
         rx="10"/>
   <text class="terminal" x="241" y="21"/>
   <a xmlns:xlink="http://www.w3.org/1999/xlink"
      xlink:href="#dialAction"
      xlink:title="dialAction">
      <rect x="293" y="3" width="80" height="32"/>
      <rect x="291" y="1" width="80" height="32" class="nonterminal"/>
      <text class="nonterminal" x="301" y="21">dialAction</text>
   </a>
   <a xmlns:xlink="http://www.w3.org/1999/xlink"
      xlink:href="#viewLocationAction"
      xlink:title="viewLocationAction">
      <rect x="293" y="47" width="140" height="32"/>
      <rect x="291" y="45" width="140" height="32" class="nonterminal"/>
      <text class="nonterminal" x="301" y="65">viewLocationAction</text>
   </a>
   <a xmlns:xlink="http://www.w3.org/1999/xlink"
      xlink:href="#createCalendarEventAction"
      xlink:title="createCalendarEventAction">
      <rect x="293" y="91" width="192" height="32"/>
      <rect x="291" y="89" width="192" height="32" class="nonterminal"/>
      <text class="nonterminal" x="301" y="109">createCalendarEventAction</text>
   </a>
   <a xmlns:xlink="http://www.w3.org/1999/xlink"
      xlink:href="#openUrlAction"
      xlink:title="openUrlAction">
      <rect x="293" y="135" width="108" height="32"/>
      <rect x="291" y="133" width="108" height="32" class="nonterminal"/>
      <text class="nonterminal" x="301" y="153">openUrlAction</text>
   </a>
   <rect x="293" y="179" width="158" height="32" rx="10"/>
   <rect x="291"
         y="177"
         width="158"
         height="32"
         class="terminal"
         rx="10"/>
   <text class="terminal" x="301" y="197">shareLocationAction</text>
   <a xmlns:xlink="http://www.w3.org/1999/xlink"
      xlink:href="#composeAction"
      xlink:title="composeAction">
      <rect x="293" y="223" width="116" height="32"/>
      <rect x="291" y="221" width="116" height="32" class="nonterminal"/>
      <text class="nonterminal" x="301" y="241">composeAction</text>
   </a>
   <rect x="525" y="3" width="20" height="32" rx="10"/>
   <rect x="523"
         y="1"
         width="20"
         height="32"
         class="terminal"
         rx="10"/>
   <text class="terminal" x="533" y="21"/>
   <path class="line"
         d="m17 17 h2 m20 0 h10 m0 0 h152 m-182 0 h20 m162 0 h20 m-202 0 q10 0 10 10 m182 0 q0 -10 10 -10 m-192 10 v12 m182 0 v-12 m-182 12 q0 10 10 10 m162 0 q10 0 10 -10 m-172 10 h10 m142 0 h10 m20 -32 h10 m20 0 h10 m20 0 h10 m80 0 h10 m0 0 h112 m-232 0 h20 m212 0 h20 m-252 0 q10 0 10 10 m232 0 q0 -10 10 -10 m-242 10 v24 m232 0 v-24 m-232 24 q0 10 10 10 m212 0 q10 0 10 -10 m-222 10 h10 m140 0 h10 m0 0 h52 m-222 -10 v20 m232 0 v-20 m-232 20 v24 m232 0 v-24 m-232 24 q0 10 10 10 m212 0 q10 0 10 -10 m-222 10 h10 m192 0 h10 m-222 -10 v20 m232 0 v-20 m-232 20 v24 m232 0 v-24 m-232 24 q0 10 10 10 m212 0 q10 0 10 -10 m-222 10 h10 m108 0 h10 m0 0 h84 m-222 -10 v20 m232 0 v-20 m-232 20 v24 m232 0 v-24 m-232 24 q0 10 10 10 m212 0 q10 0 10 -10 m-222 10 h10 m158 0 h10 m0 0 h34 m-222 -10 v20 m232 0 v-20 m-232 20 v24 m232 0 v-24 m-232 24 q0 10 10 10 m212 0 q10 0 10 -10 m-222 10 h10 m116 0 h10 m0 0 h76 m20 -220 h10 m20 0 h10 m3 0 h-3"/>
   <polygon points="563 17 571 13 571 21"/>
   <polygon points="563 17 555 13 555 21"/>
</svg>
