<?xml version="1.0" encoding="UTF-8"?>
<svg xmlns="http://www.w3.org/2000/svg" width="305" height="257">
   <defs>
      <style type="text/css">
    @namespace "http://www.w3.org/2000/svg";
    .line                 {fill: none; stroke: #003322; stroke-width: 1;}
    .bold-line            {stroke: #00140E; shape-rendering: crispEdges; stroke-width: 2;}
    .thin-line            {stroke: #001F14; shape-rendering: crispEdges}
    .filled               {fill: #003322; stroke: none;}
    text.terminal         {font-family: Verdana, Sans-serif;
                            font-size: 12px;
                            fill: #00140E;
                            font-weight: bold;
                          }
    text.nonterminal      {font-family: Verdana, Sans-serif;
                            font-size: 12px;
                            fill: #001A11;
                            font-weight: normal;
                          }
    text.regexp           {font-family: Verdana, Sans-serif;
                            font-size: 12px;
                            fill: #001F14;
                            font-weight: normal;
                          }
    rect, circle, polygon {fill: #003322; stroke: #003322;}
    rect.terminal         {fill: #4DFFC3; stroke: #003322; stroke-width: 1;}
    rect.nonterminal      {fill: #9EFFDF; stroke: #003322; stroke-width: 1;}
    rect.text             {fill: none; stroke: none;}
    polygon.regexp        {fill: #C7FFEC; stroke: #003322; stroke-width: 1;}
  </style>
   </defs>
   <polygon points="9 17 1 13 1 21"/>
   <polygon points="17 17 9 13 9 21"/>
   <a xmlns:xlink="http://www.w3.org/1999/xlink"
      xlink:href="#replyShortcut"
      xlink:title="replyShortcut">
      <rect x="51" y="3" width="104" height="32"/>
      <rect x="49" y="1" width="104" height="32" class="nonterminal"/>
      <text class="nonterminal" x="59" y="21">replyShortcut</text>
   </a>
   <a xmlns:xlink="http://www.w3.org/1999/xlink"
      xlink:href="#dialShortcut"
      xlink:title="dialShortcut">
      <rect x="51" y="47" width="96" height="32"/>
      <rect x="49" y="45" width="96" height="32" class="nonterminal"/>
      <text class="nonterminal" x="59" y="65">dialShortcut</text>
   </a>
   <a xmlns:xlink="http://www.w3.org/1999/xlink"
      xlink:href="#openUrlShortcut"
      xlink:title="openUrlShortcut">
      <rect x="51" y="91" width="122" height="32"/>
      <rect x="49" y="89" width="122" height="32" class="nonterminal"/>
      <text class="nonterminal" x="59" y="109">openUrlShortcut</text>
   </a>
   <a xmlns:xlink="http://www.w3.org/1999/xlink"
      xlink:href="#shareLocationShortcut"
      xlink:title="shareLocationShortcut">
      <rect x="51" y="135" width="162" height="32"/>
      <rect x="49" y="133" width="162" height="32" class="nonterminal"/>
      <text class="nonterminal" x="59" y="153">shareLocationShortcut</text>
   </a>
   <a xmlns:xlink="http://www.w3.org/1999/xlink"
      xlink:href="#createCalendarEventShortcut"
      xlink:title="createCalendarEventShortcut">
      <rect x="51" y="179" width="206" height="32"/>
      <rect x="49" y="177" width="206" height="32" class="nonterminal"/>
      <text class="nonterminal" x="59" y="197">createCalendarEventShortcut</text>
   </a>
   <a xmlns:xlink="http://www.w3.org/1999/xlink"
      xlink:href="#viewLocationShortcut"
      xlink:title="viewLocationShortcut">
      <rect x="51" y="223" width="154" height="32"/>
      <rect x="49" y="221" width="154" height="32" class="nonterminal"/>
      <text class="nonterminal" x="59" y="241">viewLocationShortcut</text>
   </a>
   <path class="line"
         d="m17 17 h2 m20 0 h10 m104 0 h10 m0 0 h102 m-246 0 h20 m226 0 h20 m-266 0 q10 0 10 10 m246 0 q0 -10 10 -10 m-256 10 v24 m246 0 v-24 m-246 24 q0 10 10 10 m226 0 q10 0 10 -10 m-236 10 h10 m96 0 h10 m0 0 h110 m-236 -10 v20 m246 0 v-20 m-246 20 v24 m246 0 v-24 m-246 24 q0 10 10 10 m226 0 q10 0 10 -10 m-236 10 h10 m122 0 h10 m0 0 h84 m-236 -10 v20 m246 0 v-20 m-246 20 v24 m246 0 v-24 m-246 24 q0 10 10 10 m226 0 q10 0 10 -10 m-236 10 h10 m162 0 h10 m0 0 h44 m-236 -10 v20 m246 0 v-20 m-246 20 v24 m246 0 v-24 m-246 24 q0 10 10 10 m226 0 q10 0 10 -10 m-236 10 h10 m206 0 h10 m-236 -10 v20 m246 0 v-20 m-246 20 v24 m246 0 v-24 m-246 24 q0 10 10 10 m226 0 q10 0 10 -10 m-236 10 h10 m154 0 h10 m0 0 h52 m23 -220 h-3"/>
   <polygon points="295 17 303 13 303 21"/>
   <polygon points="295 17 287 13 287 21"/>
</svg>
