<?xml version="1.0" encoding="UTF-8"?>
<svg xmlns="http://www.w3.org/2000/svg" width="819" height="69">
   <defs>
      <style type="text/css">
    @namespace "http://www.w3.org/2000/svg";
    .line                 {fill: none; stroke: #003322; stroke-width: 1;}
    .bold-line            {stroke: #00140E; shape-rendering: crispEdges; stroke-width: 2;}
    .thin-line            {stroke: #001F14; shape-rendering: crispEdges}
    .filled               {fill: #003322; stroke: none;}
    text.terminal         {font-family: Verdana, Sans-serif;
                            font-size: 12px;
                            fill: #00140E;
                            font-weight: bold;
                          }
    text.nonterminal      {font-family: Verdana, Sans-serif;
                            font-size: 12px;
                            fill: #001A11;
                            font-weight: normal;
                          }
    text.regexp           {font-family: Verdana, Sans-serif;
                            font-size: 12px;
                            fill: #001F14;
                            font-weight: normal;
                          }
    rect, circle, polygon {fill: #003322; stroke: #003322;}
    rect.terminal         {fill: #4DFFC3; stroke: #003322; stroke-width: 1;}
    rect.nonterminal      {fill: #9EFFDF; stroke: #003322; stroke-width: 1;}
    rect.text             {fill: none; stroke: none;}
    polygon.regexp        {fill: #C7FFEC; stroke: #003322; stroke-width: 1;}
  </style>
   </defs>
   <polygon points="9 17 1 13 1 21"/>
   <polygon points="17 17 9 13 9 21"/>
   <rect x="31" y="3" width="130" height="32" rx="10"/>
   <rect x="29"
         y="1"
         width="130"
         height="32"
         class="terminal"
         rx="10"/>
   <text class="terminal" x="39" y="21">termsConditions</text>
   <rect x="181" y="3" width="20" height="32" rx="10"/>
   <rect x="179"
         y="1"
         width="20"
         height="32"
         class="terminal"
         rx="10"/>
   <text class="terminal" x="189" y="21"/>
   <rect x="221" y="3" width="38" height="32" rx="10"/>
   <rect x="219"
         y="1"
         width="38"
         height="32"
         class="terminal"
         rx="10"/>
   <text class="terminal" x="229" y="21">url</text>
   <rect x="279" y="3" width="24" height="32" rx="10"/>
   <rect x="277"
         y="1"
         width="24"
         height="32"
         class="terminal"
         rx="10"/>
   <text class="terminal" x="287" y="21">:</text>
   <a xmlns:xlink="http://www.w3.org/1999/xlink"
      xlink:href="#typedValue"
      xlink:title="typedValue">
      <rect x="323" y="3" width="92" height="32"/>
      <rect x="321" y="1" width="92" height="32" class="nonterminal"/>
      <text class="nonterminal" x="331" y="21">typedValue</text>
   </a>
   <rect x="455" y="35" width="52" height="32" rx="10"/>
   <rect x="453"
         y="33"
         width="52"
         height="32"
         class="terminal"
         rx="10"/>
   <text class="terminal" x="463" y="53">label</text>
   <rect x="527" y="35" width="24" height="32" rx="10"/>
   <rect x="525"
         y="33"
         width="24"
         height="32"
         class="terminal"
         rx="10"/>
   <text class="terminal" x="535" y="53">:</text>
   <a xmlns:xlink="http://www.w3.org/1999/xlink"
      xlink:href="#enhancedSimpleValue"
      xlink:title="enhancedSimpleValue">
      <rect x="571" y="35" width="160" height="32"/>
      <rect x="569" y="33" width="160" height="32" class="nonterminal"/>
      <text class="nonterminal" x="579" y="53">enhancedSimpleValue</text>
   </a>
   <rect x="771" y="3" width="20" height="32" rx="10"/>
   <rect x="769"
         y="1"
         width="20"
         height="32"
         class="terminal"
         rx="10"/>
   <text class="terminal" x="779" y="21"/>
   <path class="line"
         d="m17 17 h2 m0 0 h10 m130 0 h10 m0 0 h10 m20 0 h10 m0 0 h10 m38 0 h10 m0 0 h10 m24 0 h10 m0 0 h10 m92 0 h10 m20 0 h10 m0 0 h286 m-316 0 h20 m296 0 h20 m-336 0 q10 0 10 10 m316 0 q0 -10 10 -10 m-326 10 v12 m316 0 v-12 m-316 12 q0 10 10 10 m296 0 q10 0 10 -10 m-306 10 h10 m52 0 h10 m0 0 h10 m24 0 h10 m0 0 h10 m160 0 h10 m20 -32 h10 m20 0 h10 m3 0 h-3"/>
   <polygon points="809 17 817 13 817 21"/>
   <polygon points="809 17 801 13 801 21"/>
</svg>
