<?xml version="1.0" encoding="UTF-8"?>
<svg xmlns="http://www.w3.org/2000/svg" width="649" height="115">
   <defs>
      <style type="text/css">
    @namespace "http://www.w3.org/2000/svg";
    .line                 {fill: none; stroke: #003322; stroke-width: 1;}
    .bold-line            {stroke: #00140E; shape-rendering: crispEdges; stroke-width: 2;}
    .thin-line            {stroke: #001F14; shape-rendering: crispEdges}
    .filled               {fill: #003322; stroke: none;}
    text.terminal         {font-family: Verdana, Sans-serif;
                            font-size: 12px;
                            fill: #00140E;
                            font-weight: bold;
                          }
    text.nonterminal      {font-family: Verdana, Sans-serif;
                            font-size: 12px;
                            fill: #001A11;
                            font-weight: normal;
                          }
    text.regexp           {font-family: Verdana, Sans-serif;
                            font-size: 12px;
                            fill: #001F14;
                            font-weight: normal;
                          }
    rect, circle, polygon {fill: #003322; stroke: #003322;}
    rect.terminal         {fill: #4DFFC3; stroke: #003322; stroke-width: 1;}
    rect.nonterminal      {fill: #9EFFDF; stroke: #003322; stroke-width: 1;}
    rect.text             {fill: none; stroke: none;}
    polygon.regexp        {fill: #C7FFEC; stroke: #003322; stroke-width: 1;}
  </style>
   </defs>
   <polygon points="9 51 1 47 1 55"/>
   <polygon points="17 51 9 47 9 55"/>
   <rect x="31" y="37" width="46" height="32" rx="10"/>
   <rect x="29"
         y="35"
         width="46"
         height="32"
         class="terminal"
         rx="10"/>
   <text class="terminal" x="39" y="55">text</text>
   <a xmlns:xlink="http://www.w3.org/1999/xlink"
      xlink:href="#enhancedSimpleValue"
      xlink:title="enhancedSimpleValue">
      <rect x="117" y="37" width="160" height="32"/>
      <rect x="115" y="35" width="160" height="32" class="nonterminal"/>
      <text class="nonterminal" x="125" y="55">enhancedSimpleValue</text>
   </a>
   <a xmlns:xlink="http://www.w3.org/1999/xlink"
      xlink:href="#expressionValue"
      xlink:title="expressionValue">
      <rect x="117" y="81" width="124" height="32"/>
      <rect x="115" y="79" width="124" height="32" class="nonterminal"/>
      <text class="nonterminal" x="125" y="99">expressionValue</text>
   </a>
   <rect x="337" y="37" width="20" height="32" rx="10"/>
   <rect x="335"
         y="35"
         width="20"
         height="32"
         class="terminal"
         rx="10"/>
   <text class="terminal" x="345" y="55"/>
   <a xmlns:xlink="http://www.w3.org/1999/xlink"
      xlink:href="#suggestionShortcut"
      xlink:title="suggestionShortcut">
      <rect x="397" y="3" width="144" height="32"/>
      <rect x="395" y="1" width="144" height="32" class="nonterminal"/>
      <text class="nonterminal" x="405" y="21">suggestionShortcut</text>
   </a>
   <rect x="581" y="37" width="20" height="32" rx="10"/>
   <rect x="579"
         y="35"
         width="20"
         height="32"
         class="terminal"
         rx="10"/>
   <text class="terminal" x="589" y="55"/>
   <path class="line"
         d="m17 51 h2 m0 0 h10 m46 0 h10 m20 0 h10 m160 0 h10 m-200 0 h20 m180 0 h20 m-220 0 q10 0 10 10 m200 0 q0 -10 10 -10 m-210 10 v24 m200 0 v-24 m-200 24 q0 10 10 10 m180 0 q10 0 10 -10 m-190 10 h10 m124 0 h10 m0 0 h36 m40 -44 h10 m20 0 h10 m20 0 h10 m0 0 h154 m-184 0 l20 0 m-1 0 q-9 0 -9 -10 l0 -14 q0 -10 10 -10 m164 34 l20 0 m-20 0 q10 0 10 -10 l0 -14 q0 -10 -10 -10 m-164 0 h10 m144 0 h10 m20 34 h10 m20 0 h10 m-304 0 h20 m284 0 h20 m-324 0 q10 0 10 10 m304 0 q0 -10 10 -10 m-314 10 v14 m304 0 v-14 m-304 14 q0 10 10 10 m284 0 q10 0 10 -10 m-294 10 h10 m0 0 h274 m23 -34 h-3"/>
   <polygon points="639 51 647 47 647 55"/>
   <polygon points="639 51 631 47 631 55"/>
</svg>
