<?xml version="1.0" encoding="UTF-8"?>
<svg xmlns="http://www.w3.org/2000/svg" width="599" height="69">
   <defs>
      <style type="text/css">
    @namespace "http://www.w3.org/2000/svg";
    .line                 {fill: none; stroke: #003322; stroke-width: 1;}
    .bold-line            {stroke: #00140E; shape-rendering: crispEdges; stroke-width: 2;}
    .thin-line            {stroke: #001F14; shape-rendering: crispEdges}
    .filled               {fill: #003322; stroke: none;}
    text.terminal         {font-family: Verdana, Sans-serif;
                            font-size: 12px;
                            fill: #00140E;
                            font-weight: bold;
                          }
    text.nonterminal      {font-family: Verdana, Sans-serif;
                            font-size: 12px;
                            fill: #001A11;
                            font-weight: normal;
                          }
    text.regexp           {font-family: Verdana, Sans-serif;
                            font-size: 12px;
                            fill: #001F14;
                            font-weight: normal;
                          }
    rect, circle, polygon {fill: #003322; stroke: #003322;}
    rect.terminal         {fill: #4DFFC3; stroke: #003322; stroke-width: 1;}
    rect.nonterminal      {fill: #9EFFDF; stroke: #003322; stroke-width: 1;}
    rect.text             {fill: none; stroke: none;}
    polygon.regexp        {fill: #C7FFEC; stroke: #003322; stroke-width: 1;}
  </style>
   </defs>
   <polygon points="9 17 1 13 1 21"/>
   <polygon points="17 17 9 13 9 21"/>
   <rect x="31" y="3" width="30" height="32" rx="10"/>
   <rect x="29"
         y="1"
         width="30"
         height="32"
         class="terminal"
         rx="10"/>
   <text class="terminal" x="39" y="21">&lt;</text>
   <a xmlns:xlink="http://www.w3.org/1999/xlink"
      xlink:href="#TYPE_NAME"
      xlink:title="TYPE_NAME">
      <rect x="81" y="3" width="94" height="32"/>
      <rect x="79" y="1" width="94" height="32" class="nonterminal"/>
      <text class="nonterminal" x="89" y="21">TYPE_NAME</text>
   </a>
   <a xmlns:xlink="http://www.w3.org/1999/xlink"
      xlink:href="#typeConversionValue"
      xlink:title="typeConversionValue">
      <rect x="195" y="3" width="154" height="32"/>
      <rect x="193" y="1" width="154" height="32" class="nonterminal"/>
      <text class="nonterminal" x="203" y="21">typeConversionValue</text>
   </a>
   <rect x="389" y="35" width="26" height="32" rx="10"/>
   <rect x="387"
         y="33"
         width="26"
         height="32"
         class="terminal"
         rx="10"/>
   <text class="terminal" x="397" y="53">|</text>
   <a xmlns:xlink="http://www.w3.org/1999/xlink"
      xlink:href="#STRING"
      xlink:title="STRING">
      <rect x="435" y="35" width="66" height="32"/>
      <rect x="433" y="33" width="66" height="32" class="nonterminal"/>
      <text class="nonterminal" x="443" y="53">STRING</text>
   </a>
   <rect x="541" y="3" width="30" height="32" rx="10"/>
   <rect x="539"
         y="1"
         width="30"
         height="32"
         class="terminal"
         rx="10"/>
   <text class="terminal" x="549" y="21">&gt;</text>
   <path class="line"
         d="m17 17 h2 m0 0 h10 m30 0 h10 m0 0 h10 m94 0 h10 m0 0 h10 m154 0 h10 m20 0 h10 m0 0 h122 m-152 0 h20 m132 0 h20 m-172 0 q10 0 10 10 m152 0 q0 -10 10 -10 m-162 10 v12 m152 0 v-12 m-152 12 q0 10 10 10 m132 0 q10 0 10 -10 m-142 10 h10 m26 0 h10 m0 0 h10 m66 0 h10 m20 -32 h10 m30 0 h10 m3 0 h-3"/>
   <polygon points="589 17 597 13 597 21"/>
   <polygon points="589 17 581 13 581 21"/>
</svg>
