<?xml version="1.0" encoding="UTF-8"?>
<svg xmlns="http://www.w3.org/2000/svg" width="969" height="81">
   <defs>
      <style type="text/css">
    @namespace "http://www.w3.org/2000/svg";
    .line                 {fill: none; stroke: #003322; stroke-width: 1;}
    .bold-line            {stroke: #00140E; shape-rendering: crispEdges; stroke-width: 2;}
    .thin-line            {stroke: #001F14; shape-rendering: crispEdges}
    .filled               {fill: #003322; stroke: none;}
    text.terminal         {font-family: Verdana, Sans-serif;
                            font-size: 12px;
                            fill: #00140E;
                            font-weight: bold;
                          }
    text.nonterminal      {font-family: Verdana, Sans-serif;
                            font-size: 12px;
                            fill: #001A11;
                            font-weight: normal;
                          }
    text.regexp           {font-family: Verdana, Sans-serif;
                            font-size: 12px;
                            fill: #001F14;
                            font-weight: normal;
                          }
    rect, circle, polygon {fill: #003322; stroke: #003322;}
    rect.terminal         {fill: #4DFFC3; stroke: #003322; stroke-width: 1;}
    rect.nonterminal      {fill: #9EFFDF; stroke: #003322; stroke-width: 1;}
    rect.text             {fill: none; stroke: none;}
    polygon.regexp        {fill: #C7FFEC; stroke: #003322; stroke-width: 1;}
  </style>
   </defs>
   <polygon points="9 17 1 13 1 21"/>
   <polygon points="17 17 9 13 9 21"/>
   <rect x="31" y="3" width="152" height="32" rx="10"/>
   <rect x="29"
         y="1"
         width="152"
         height="32"
         class="terminal"
         rx="10"/>
   <text class="terminal" x="39" y="21">viewLocationAction</text>
   <rect x="203" y="3" width="20" height="32" rx="10"/>
   <rect x="201"
         y="1"
         width="20"
         height="32"
         class="terminal"
         rx="10"/>
   <text class="terminal" x="211" y="21"/>
   <rect x="263" y="35" width="52" height="32" rx="10"/>
   <rect x="261"
         y="33"
         width="52"
         height="32"
         class="terminal"
         rx="10"/>
   <text class="terminal" x="271" y="53">label</text>
   <rect x="335" y="35" width="24" height="32" rx="10"/>
   <rect x="333"
         y="33"
         width="24"
         height="32"
         class="terminal"
         rx="10"/>
   <text class="terminal" x="343" y="53">:</text>
   <a xmlns:xlink="http://www.w3.org/1999/xlink"
      xlink:href="#enhancedSimpleValue"
      xlink:title="enhancedSimpleValue">
      <rect x="379" y="35" width="160" height="32"/>
      <rect x="377" y="33" width="160" height="32" class="nonterminal"/>
      <text class="nonterminal" x="387" y="53">enhancedSimpleValue</text>
   </a>
   <rect x="599" y="3" width="70" height="32" rx="10"/>
   <rect x="597"
         y="1"
         width="70"
         height="32"
         class="terminal"
         rx="10"/>
   <text class="terminal" x="607" y="21">latLong</text>
   <a xmlns:xlink="http://www.w3.org/1999/xlink"
      xlink:href="#latLongObject"
      xlink:title="latLongObject">
      <rect x="689" y="3" width="108" height="32"/>
      <rect x="687" y="1" width="108" height="32" class="nonterminal"/>
      <text class="nonterminal" x="697" y="21">latLongObject</text>
   </a>
   <rect x="599" y="47" width="58" height="32" rx="10"/>
   <rect x="597"
         y="45"
         width="58"
         height="32"
         class="terminal"
         rx="10"/>
   <text class="terminal" x="607" y="65">query</text>
   <rect x="677" y="47" width="24" height="32" rx="10"/>
   <rect x="675"
         y="45"
         width="24"
         height="32"
         class="terminal"
         rx="10"/>
   <text class="terminal" x="685" y="65">:</text>
   <a xmlns:xlink="http://www.w3.org/1999/xlink"
      xlink:href="#enhancedSimpleValue"
      xlink:title="enhancedSimpleValue">
      <rect x="721" y="47" width="160" height="32"/>
      <rect x="719" y="45" width="160" height="32" class="nonterminal"/>
      <text class="nonterminal" x="729" y="65">enhancedSimpleValue</text>
   </a>
   <rect x="921" y="3" width="20" height="32" rx="10"/>
   <rect x="919"
         y="1"
         width="20"
         height="32"
         class="terminal"
         rx="10"/>
   <text class="terminal" x="929" y="21"/>
   <path class="line"
         d="m17 17 h2 m0 0 h10 m152 0 h10 m0 0 h10 m20 0 h10 m20 0 h10 m0 0 h286 m-316 0 h20 m296 0 h20 m-336 0 q10 0 10 10 m316 0 q0 -10 10 -10 m-326 10 v12 m316 0 v-12 m-316 12 q0 10 10 10 m296 0 q10 0 10 -10 m-306 10 h10 m52 0 h10 m0 0 h10 m24 0 h10 m0 0 h10 m160 0 h10 m40 -32 h10 m70 0 h10 m0 0 h10 m108 0 h10 m0 0 h84 m-322 0 h20 m302 0 h20 m-342 0 q10 0 10 10 m322 0 q0 -10 10 -10 m-332 10 v24 m322 0 v-24 m-322 24 q0 10 10 10 m302 0 q10 0 10 -10 m-312 10 h10 m58 0 h10 m0 0 h10 m24 0 h10 m0 0 h10 m160 0 h10 m20 -44 h10 m20 0 h10 m3 0 h-3"/>
   <polygon points="959 17 967 13 967 21"/>
   <polygon points="959 17 951 13 951 21"/>
</svg>
