<?xml version="1.0" encoding="UTF-8"?>
<svg xmlns="http://www.w3.org/2000/svg" width="725" height="179">
   <defs>
      <style type="text/css">
    @namespace "http://www.w3.org/2000/svg";
    .line                 {fill: none; stroke: #003322; stroke-width: 1;}
    .bold-line            {stroke: #00140E; shape-rendering: crispEdges; stroke-width: 2;}
    .thin-line            {stroke: #001F14; shape-rendering: crispEdges}
    .filled               {fill: #003322; stroke: none;}
    text.terminal         {font-family: Verdana, Sans-serif;
                            font-size: 12px;
                            fill: #00140E;
                            font-weight: bold;
                          }
    text.nonterminal      {font-family: Verdana, Sans-serif;
                            font-size: 12px;
                            fill: #001A11;
                            font-weight: normal;
                          }
    text.regexp           {font-family: Verdana, Sans-serif;
                            font-size: 12px;
                            fill: #001F14;
                            font-weight: normal;
                          }
    rect, circle, polygon {fill: #003322; stroke: #003322;}
    rect.terminal         {fill: #4DFFC3; stroke: #003322; stroke-width: 1;}
    rect.nonterminal      {fill: #9EFFDF; stroke: #003322; stroke-width: 1;}
    rect.text             {fill: none; stroke: none;}
    polygon.regexp        {fill: #C7FFEC; stroke: #003322; stroke-width: 1;}
  </style>
   </defs>
   <polygon points="9 17 1 13 1 21"/>
   <polygon points="17 17 9 13 9 21"/>
   <rect x="31" y="3" width="110" height="32" rx="10"/>
   <rect x="29"
         y="1"
         width="110"
         height="32"
         class="terminal"
         rx="10"/>
   <text class="terminal" x="39" y="21">viewLocation</text>
   <a xmlns:xlink="http://www.w3.org/1999/xlink"
      xlink:href="#enhancedSimpleValue"
      xlink:title="enhancedSimpleValue">
      <rect x="161" y="3" width="160" height="32"/>
      <rect x="159" y="1" width="160" height="32" class="nonterminal"/>
      <text class="nonterminal" x="169" y="21">enhancedSimpleValue</text>
   </a>
   <rect x="341" y="3" width="20" height="32" rx="10"/>
   <rect x="339"
         y="1"
         width="20"
         height="32"
         class="terminal"
         rx="10"/>
   <text class="terminal" x="349" y="21"/>
   <rect x="401" y="3" width="62" height="32" rx="10"/>
   <rect x="399"
         y="1"
         width="62"
         height="32"
         class="terminal"
         rx="10"/>
   <text class="terminal" x="409" y="21">latLng</text>
   <a xmlns:xlink="http://www.w3.org/1999/xlink"
      xlink:href="#NUMBER"
      xlink:title="NUMBER">
      <rect x="483" y="3" width="72" height="32"/>
      <rect x="481" y="1" width="72" height="32" class="nonterminal"/>
      <text class="nonterminal" x="491" y="21">NUMBER</text>
   </a>
   <a xmlns:xlink="http://www.w3.org/1999/xlink"
      xlink:href="#NUMBER"
      xlink:title="NUMBER">
      <rect x="575" y="3" width="72" height="32"/>
      <rect x="573" y="1" width="72" height="32" class="nonterminal"/>
      <text class="nonterminal" x="583" y="21">NUMBER</text>
   </a>
   <rect x="401" y="47" width="58" height="32" rx="10"/>
   <rect x="399"
         y="45"
         width="58"
         height="32"
         class="terminal"
         rx="10"/>
   <text class="terminal" x="409" y="65">query</text>
   <rect x="479" y="47" width="24" height="32" rx="10"/>
   <rect x="477"
         y="45"
         width="24"
         height="32"
         class="terminal"
         rx="10"/>
   <text class="terminal" x="487" y="65">:</text>
   <a xmlns:xlink="http://www.w3.org/1999/xlink"
      xlink:href="#enhancedSimpleValue"
      xlink:title="enhancedSimpleValue">
      <rect x="523" y="47" width="160" height="32"/>
      <rect x="521" y="45" width="160" height="32" class="nonterminal"/>
      <text class="nonterminal" x="531" y="65">enhancedSimpleValue</text>
   </a>
   <rect x="361" y="145" width="52" height="32" rx="10"/>
   <rect x="359"
         y="143"
         width="52"
         height="32"
         class="terminal"
         rx="10"/>
   <text class="terminal" x="369" y="163">label</text>
   <rect x="433" y="145" width="24" height="32" rx="10"/>
   <rect x="431"
         y="143"
         width="24"
         height="32"
         class="terminal"
         rx="10"/>
   <text class="terminal" x="441" y="163">:</text>
   <a xmlns:xlink="http://www.w3.org/1999/xlink"
      xlink:href="#enhancedSimpleValue"
      xlink:title="enhancedSimpleValue">
      <rect x="477" y="145" width="160" height="32"/>
      <rect x="475" y="143" width="160" height="32" class="nonterminal"/>
      <text class="nonterminal" x="485" y="163">enhancedSimpleValue</text>
   </a>
   <rect x="677" y="113" width="20" height="32" rx="10"/>
   <rect x="675"
         y="111"
         width="20"
         height="32"
         class="terminal"
         rx="10"/>
   <text class="terminal" x="685" y="131"/>
   <path class="line"
         d="m17 17 h2 m0 0 h10 m110 0 h10 m0 0 h10 m160 0 h10 m0 0 h10 m20 0 h10 m20 0 h10 m62 0 h10 m0 0 h10 m72 0 h10 m0 0 h10 m72 0 h10 m0 0 h36 m-322 0 h20 m302 0 h20 m-342 0 q10 0 10 10 m322 0 q0 -10 10 -10 m-332 10 v24 m322 0 v-24 m-322 24 q0 10 10 10 m302 0 q10 0 10 -10 m-312 10 h10 m58 0 h10 m0 0 h10 m24 0 h10 m0 0 h10 m160 0 h10 m22 -44 l2 0 m2 0 l2 0 m2 0 l2 0 m-406 110 l2 0 m2 0 l2 0 m2 0 l2 0 m22 0 h10 m0 0 h286 m-316 0 h20 m296 0 h20 m-336 0 q10 0 10 10 m316 0 q0 -10 10 -10 m-326 10 v12 m316 0 v-12 m-316 12 q0 10 10 10 m296 0 q10 0 10 -10 m-306 10 h10 m52 0 h10 m0 0 h10 m24 0 h10 m0 0 h10 m160 0 h10 m20 -32 h10 m20 0 h10 m3 0 h-3"/>
   <polygon points="715 127 723 123 723 131"/>
   <polygon points="715 127 707 123 707 131"/>
</svg>
